<?xml version="1.0" encoding="UTF-8" standalone="no"?>
<!-- Created for MapSVG plugin: http://mapsvg.com -->

<svg
   xmlns:mapsvg="http://mapsvg.com"
   xmlns:dc="http://purl.org/dc/elements/1.1/"
   xmlns:cc="http://creativecommons.org/ns#"
   xmlns:rdf="http://www.w3.org/1999/02/22-rdf-syntax-ns#"
   xmlns:svg="http://www.w3.org/2000/svg"
   xmlns="http://www.w3.org/2000/svg"
   xmlns:sodipodi="http://sodipodi.sourceforge.net/DTD/sodipodi-0.dtd"
   xmlns:inkscape="http://www.inkscape.org/namespaces/inkscape"
   mapsvg:geoViewBox="165.866591 -34.392118 183.847367 -52.610589"
   width="512"
   height="512"
   version="1.1"
   id="svg19"
   sodipodi:docname="location.svg"
   inkscape:version="0.92.4 5da689c313, 2019-01-14">
  <metadata
     id="metadata25">
    <rdf:RDF>
      <cc:Work
         rdf:about="">
        <dc:format>image/svg+xml</dc:format>
        <dc:type
           rdf:resource="http://purl.org/dc/dcmitype/StillImage" />
        <dc:title />
      </cc:Work>
    </rdf:RDF>
  </metadata>
  <defs
     id="defs23" />
  <sodipodi:namedview
     pagecolor="#ffffff"
     bordercolor="#666666"
     borderopacity="1"
     objecttolerance="10"
     gridtolerance="10"
     guidetolerance="10"
     inkscape:pageopacity="0"
     inkscape:pageshadow="2"
     inkscape:window-width="1920"
     inkscape:window-height="1019"
     id="namedview21"
     showgrid="false"
     inkscape:pagecheckerboard="true"
     inkscape:zoom="5.4026076"
     inkscape:cx="215.33818"
     inkscape:cy="177.32716"
     inkscape:window-x="1920"
     inkscape:window-y="0"
     inkscape:window-maximized="1"
     inkscape:current-layer="svg19" />
  <path
     d="m 248.81331,111.85664 0.72036,-0.0554 -0.47793,0.56798 0.28399,0.942 -0.35326,0.74114 -1.1498,-1.34374 0.63725,-0.0554 -0.0762,-0.83117 z m -0.48485,-2.93683 0.61646,0.0554 0.29091,0.45715 -0.28399,0.49178 -0.34632,-0.19394 -0.69265,0.46407 0.31862,1.01127 -0.6026,1.03898 h -0.47101 l -0.38096,-0.0208 -0.40866,-0.21472 -0.69958,-0.14546 -0.33246,-0.24936 0.24242,-0.35325 -0.96971,-0.0277 0.25628,-0.40867 -0.73421,-0.53333 -0.7342,0.72035 -0.0347,-1.37145 0.7827,-0.13853 0.0624,0.58183 1.16365,-0.63032 0.20087,0.6788 0.85195,0.0208 0.15931,-0.74807 1.13595,0.0416 z m -6.87108,-0.6788 0.5264,0.40173 -0.17315,1.45457 -0.4433,0.45022 -0.29092,-0.41559 -0.33247,0.5749 -1.36452,0.097 -0.3394,-0.56797 0.30477,-0.65109 1.39915,-0.0485 0.69265,-0.72035 z m -2.04332,-11.304053 1.02512,0.803474 -0.12468,1.329888 -0.28399,-0.464076 -0.82425,0.311693 0.15238,-0.27706 -0.63723,-0.387884 z m 6.84338,-7.404426 0.60953,0.443295 -0.45022,1.655433 -1.34375,-0.39481 0.0347,-1.163652 z m -12.37766,-0.803475 2.25804,3.32472 2.7706,1.011269 -0.0208,0.498707 -0.69957,0.443297 0.13852,0.588751 -0.43637,-0.0277 -0.1316,0.02078 0.27014,1.004342 0.43636,-0.117751 0.92123,0.748062 0.78962,-0.13853 -0.58183,0.505635 -0.67187,-0.13853 -0.85888,0.450222 -1.27448,0.242427 -0.36017,-0.332472 0.0624,1.205212 0.47793,0.471001 0.83118,-0.03463 -0.0831,0.25628 -0.85889,0.997415 -0.51948,0.637237 0.13853,-1.371445 -0.48485,-0.263207 -0.33248,0.706503 -0.3671,0.53334 0.85888,0.457149 0.1039,1.66236 -0.60953,-0.18009 0.28398,0.74806 -0.41558,0.0208 -0.09,0.43637 1.08746,1.57232 0.87967,0.12468 0.22165,-0.66495 1.76625,-0.46407 -0.1316,0.90737 -1.64158,0.1593 -0.37403,0.58875 -0.85889,0.13854 0.96972,1.67621 -0.37404,0.64417 0.69957,2.4312 1.01127,1.413 -0.90044,-0.09 0.36018,-0.29092 -0.76884,-0.65802 -0.65802,0.62339 -1.1498,0.2355 -0.95585,-1.73855 0.3671,-0.72729 -0.85196,0.81733 0.007,0.41559 0.0762,0.65802 0.30477,0.3117 -0.0624,1.26062 0.95587,0.9697 0.31861,-1.05282 0.61646,0.0624 0.45023,-0.62338 1.14979,0.19394 0.15931,0.71343 0.42945,0.0831 0.30476,-0.60954 1.53076,0.0208 0.3671,0.83811 -0.78962,1.27447 1.25369,-1.12209 0.25629,-0.0554 1.29525,1.29525 0.80348,-0.1316 -0.2078,-0.9143 1.45457,-0.24243 0.86581,1.03205 0.28399,0.28398 0.65109,1.08747 1.01819,-0.61646 0.47793,0.77577 0.84503,-0.69265 1.55847,0.92122 0.942,1.53769 v 0 l -0.31169,0.7342 -1.79397,0.51256 -0.92122,-0.75498 -0.52641,0.19394 -0.0485,1.30218 -1.89093,-0.21472 -0.38095,-0.59568 -1.19829,1.53768 -0.56105,1.85631 -0.89352,-0.0347 -0.55412,-0.53333 -0.33939,0.49178 0.20086,0.66494 0.26322,-0.27706 0.65108,0.67879 0.67187,1.40609 -0.50563,0.92122 -1.6208,-0.13853 0.37403,0.59568 -0.43637,0.34633 -0.0624,0.942 -1.80781,-0.4433 -0.0624,0.942 -1.11517,0.66495 v 0 l -1.3091,0.69265 -0.16624,-0.29785 -0.35325,0.35326 0.1039,0.81733 -0.45023,0.39481 -1.09438,-1.0182 -3.99659,-9.21224 -0.0139,-0.87274 0.6788,-0.29784 1.16365,0.21472 0.55412,-0.4433 0.85888,0.27707 0.15932,0.8381 -0.42252,0.56105 0.53334,0.7065 -0.18702,1.12209 0.75499,0.26321 0.51256,2.88143 0.74807,0.13853 -0.8866,-2.68749 0.62338,0.24243 0.5749,0.15931 1.19137,-0.18702 -2.34809,-0.40173 -0.42252,-0.49179 1.36452,-0.40173 0.96279,-1.23984 0.49178,0.09 -0.097,0.63724 1.65543,-1.82167 0.69265,0.41559 0.50563,-0.25628 0.14546,0.52641 0.75499,-0.61646 -0.65109,-0.47792 -0.47793,0.4987 -0.40173,-0.11775 -0.39482,-0.13853 -1.13594,-1.37837 -1.36453,0.29784 0.22165,-0.33939 -0.85888,-0.55413 0.89352,-0.80347 -0.49871,-0.94201 0.90044,-0.18701 0.76885,0.46408 0.30476,-0.50564 -1.0459,-0.18009 -0.49178,-0.1316 -1.14287,0.49178 -0.63031,-0.42252 -0.68572,0.25629 -1.30219,1.5169 -0.37403,-0.22858 -0.42944,0.96971 0.22164,0.65109 -1.03204,-0.32555 -0.17316,-0.3948 -0.26321,0.76191 -1.23292,0.90044 -0.69265,0.0416 -0.51256,-3.39399 -1.03205,-2.34809 -0.32554,-2.34115 -3.46325,-6.01221 -3.40784,-4.8901 0.18702,-1.198288 0.87273,-0.457149 0.92815,-0.221647 1.80089,3.324714 2.02947,1.23985 -0.33247,1.23291 0.29784,0.15931 0.72035,0.66495 0.8866,-0.51256 0.11775,-0.45022 -0.85197,-0.42945 0.30477,-0.68572 0.64416,-0.29785 -1.02512,-2.618207 0.60261,-1.932493 -0.96971,-0.900445 -0.22858,0.471001 -0.72035,0.193942 -0.85889,-0.914298 -0.29784,0.339399 -0.93507,-0.07619 -0.7827,-0.512561 0.4433,-2.167994 0.41558,-0.25628 1.5931,0.734209 1.3853,-0.561047 0.17316,-0.71343 v 0 l 1.4892,-1.219063 0.37403,0.263207 0.27014,-0.976637 1.39915,-0.519487 0.0831,-0.92815 1.3853,-0.526414 0.0693,-0.928152 0.91429,-0.706502 v 0 z m 20.61327,-3.061512 0.44328,0.304766 -0.24242,1.025122 0.44329,-0.256281 0.0901,0.685723 0.55412,0.05541 -0.56797,0.332472 0.1039,0.761915 0.2355,0.04848 1.84245,1.025122 -0.58876,0.651091 0.097,1.080533 -0.471,0.228574 0.55411,1.101314 0.51256,-0.0069 0.92123,0.955857 0.20087,0.748061 -0.74807,1.156725 -1.36452,-0.602605 0.15239,-0.436369 0.40173,0.103897 -0.16623,-0.664944 -0.75499,0.380958 -0.73421,-0.138531 0.16624,-1.60002 -1.00435,0.263207 -0.18701,-0.540268 -0.38096,0.04849 -1.30218,-1.073607 -0.34632,0.471002 -0.27707,-0.775768 -0.0208,-0.886593 0.49179,0.09005 0.29091,0.595678 0.5749,0.0069 -0.3117,-0.69265 0.12469,-0.561046 -0.3394,-0.360178 0.42944,-0.270134 -1.23291,-0.387884 0.1316,-0.464075 0.36017,0.325545 1.27448,-0.477928 -0.94893,-0.803474 0.0485,-0.865812 z"
     title="Auckland"
     id="NZ-AUK"
     style="fill:#999999;fill-opacity:0.58823529;stroke-width:0.69264984"
     inkscape:connector-curvature="0" />
  <path
     d="m 270.42399,133.34956 0.62338,0.3394 1.98791,2.94376 2.05717,2.20263 -0.24935,0.30477 -1.80782,-1.66236 -0.2355,0.83118 -1.15672,-0.63724 -0.0624,-1.05283 1.11516,0.33248 -2.36886,-2.72905 z m 6.69099,55.60594 0.68573,-0.64417 0.63724,-0.0624 0.0277,-0.94894 -0.50563,-0.74113 0.58183,-0.79654 -0.60953,-0.8866 -0.12468,-1.82859 -0.73421,-0.0831 -0.22858,0.65108 -1.01819,-0.16623 v 0 l -1.39223,-1.70392 v 0 l -0.52641,-1.10824 0.45715,0.007 -0.68573,-0.67187 v 0 l -0.32554,-0.8104 v 0 l 0.35326,-0.13853 0.18008,-1.3853 2.78446,0.7827 1.11516,-0.99742 -2.2719,-2.6667 0.89352,-1.65544 0.0277,-0.942 0.35325,-0.13853 -2.24419,-0.99741 -0.53334,0.20779 -0.32555,-0.8104 -1.44071,0.18701 -0.22164,-0.65801 0.43637,-0.35325 -0.14547,-0.87274 0.73422,0.09 1.60002,-1.92557 0.45022,1.31603 0.55412,0.15931 0.0485,0.72728 1.36452,0.0277 1.31604,-0.69958 -0.0208,-0.36018 0.8104,-0.12467 0.50564,0.7342 -0.63724,1.36452 1.58617,0.68573 0.86581,-2.01561 2.41735,0.92123 -0.22165,-0.65802 0.9143,-3.89962 -1.08054,-1.2537 -1.55846,-0.32554 -0.97664,-1.10825 -0.80347,0.12468 -1.03205,-0.52641 -0.0485,-0.72729 -0.29784,-0.44329 -0.35326,0.13853 -0.76884,-2.11951 0.35326,-0.13853 -0.78962,-2.47969 0.33247,-0.4987 -0.39481,-0.58875 -0.35325,0.13852 0.0554,-0.57489 -1.32296,-0.96971 -1.80782,-0.0416 -1.32295,-0.97664 -0.14547,-0.87274 -0.94892,-0.74806 -1.18443,-0.10389 -0.0416,-0.72036 -0.55412,-0.15931 -0.3394,-1.16365 0.96279,-0.5472 -0.471,-0.37402 0.15931,-0.42945 -0.6511,-0.30477 0.15932,-0.42944 -0.49179,-0.73421 0.35326,-0.1316 -0.92122,-0.38788 0.52641,-1.85631 -0.6511,-1.9602 -1.75932,-2.65284 0.11775,-1.1498 -0.89352,-1.697 0.69264,-0.62338 -0.69957,-1.40608 0.6788,-0.98356 0.67879,1.0459 1.08054,-0.0277 -0.40866,-0.95586 -0.35325,0.1316 -0.29092,-0.45022 0.59568,-0.76191 0.37403,0.2355 0.50563,-0.54719 -0.33247,-0.80348 0.43637,0.0277 0.22858,-0.63724 -0.37403,-0.2355 0.67879,-0.24242 v 0 l -0.007,0.8381 1.39915,2.23726 -0.37402,0.0831 -0.23551,-0.60952 -0.67879,0.37402 -0.36711,1.17058 0.52641,0.0277 0.007,-0.4156 0.76191,1.00435 -1.56539,0.67187 0.90045,0.68572 -0.63724,0.19394 -0.16624,0.63031 0.5195,-0.32554 0.29783,0.76884 0.49178,-0.58875 0.19394,0.61645 -0.53334,0.26321 0.86582,0.38096 -0.29092,0.42944 0.24243,0.53334 0.69265,-0.51949 0.55412,0.48486 0.47793,-0.40174 -0.46407,1.08054 1.49612,0.17316 0.0901,0.78962 1.12209,-0.8866 0.47793,0.31862 -0.0693,0.8866 0.43637,-0.9143 0.19393,0.67187 -0.61645,0.92815 0.20087,0.41559 0.68572,-0.69265 1.23292,0.17316 0.14546,-0.51256 -0.58875,-0.31861 -0.94202,-0.71344 0.0277,-0.98356 -0.39482,-0.26321 0.22858,-0.22857 2.22341,2.00868 4.7308,2.68749 0.6026,-0.16624 0.39481,-0.67187 0.38788,0.72729 4.86241,3.28315 2.33423,0.95586 4.99401,1.1498 2.24418,0.68572 0.45714,0.87274 2.90914,0.78962 -2.00176,-0.20087 0.0277,0.58183 1.05975,0.17316 0.29091,0.53334 0.50564,0.097 0.61646,-0.4156 -0.097,-0.6788 6.3239,-0.097 2.5628,-1.2052 -0.0277,-0.51257 1.6485,-0.942 0.20087,-0.8104 0.8104,-0.6788 0.1039,-0.90044 0.65802,-0.8866 0.93508,-0.80347 0.99741,-1.00435 -0.42252,-0.67878 1.0459,-0.56798 0.5472,-1.50305 1.5169,-0.11083 0.86582,-0.61645 0.93507,0.10389 0.90737,-0.74806 0.51949,-1.15673 0.30477,0.5195 1.00434,-0.0901 1.05975,-1.3576 -0.22165,-1.35066 0.66495,0.54719 0.78962,-0.38788 1.15672,0.0762 v 0 l 0.70651,1.82859 -1.78703,-0.0277 -1.66929,0.51256 -0.14546,0.42944 0.72728,2.27189 -0.42944,0.36018 0.22857,0.64417 -0.50563,0.58182 0.61645,0.85889 1.11517,-1.01819 0.99742,1.06667 -2.79831,2.83987 -2.91605,9.00445 -0.35325,0.14545 -3.38706,-3.05458 -0.63724,0.0762 -0.31169,-0.42251 -0.53334,0.22164 0.86581,1.49613 -0.67879,0.65109 0.38788,0.21472 0.0624,0.71343 -0.8866,0.36018 v 0 l -0.29091,0.85889 v 0 l 0.31169,0.42943 -1.5169,0.43637 -0.0416,0.5749 -1.2537,0.78962 -1.73855,0.42252 0.2078,0.29091 -0.42252,0.36019 0.51256,0.72035 -0.99049,2.43813 -6.15766,3.18619 0.48486,2.97146 h -0.45715 l -0.40174,0.72037 -0.65802,-0.29785 -0.45022,1.30218 -0.53333,0.21472 0.20086,0.29092 -1.16365,0.28398 v 0 l -0.55412,1.16365 -0.63031,0.0693 -0.0277,-0.3671 -1.05282,0.42251 -0.6511,1.01127 0.20087,0.29784 -1.07361,1.36452 -1.62772,-0.10389 -0.97664,-1.10825 -0.77576,0.49179 -0.38097,-0.22857 -0.6788,0.64416 -0.75498,-0.45023 -0.52642,0.2078 -0.30476,0.86582 -0.45022,-0.007 0.12468,0.51256 -0.90737,-0.0208 -0.29785,2.17492 0.27707,0.0762 -0.50564,0.56798 0.20779,1.60694 -2.87449,2.99225 0.51256,2.05024 -4.46067,0.0624 -0.85888,2.02947 0.79655,2.13336 -0.83812,-0.2355 -1.24677,0.49178 0.71344,1.03898 -1.52384,0.41559 z"
     title="Bay of Plenty"
     id="NZ-BOP"
     style="fill:#999999;fill-opacity:0.58823529;stroke-width:0.69264984"
     inkscape:connector-curvature="0" />
  <path
     d="m 182.4436,295.38115 0.27706,1.09439 -0.22857,0.68572 0.42944,0.63724 0.76884,0.11083 0.63032,-0.43638 0.3948,0.24936 0.0624,0.77577 0.73421,-0.27706 0.21472,0.31861 -0.51948,0.59569 0.09,1.17057 0.32555,0.47793 0.76192,0.11083 0.0277,0.38788 -0.56104,1.21906 0.72036,0.72728 1.10131,-0.42251 0.42944,0.63723 -0.22857,0.69265 0.79655,0.49872 -0.22858,0.69265 0.90737,0.65801 0.94893,0.0416 -0.3671,0.13853 -0.71343,1.68314 v 0 l 0.76191,0.11082 v 0 l 0.54719,-0.21472 0.61647,0.56798 -0.22858,0.69264 0.50563,0.40866 0.5472,-0.21471 0.11775,-0.85196 2.23033,-0.45715 0.19394,-1.08053 0.9143,-0.34633 0.66495,-1.05976 -0.0624,-0.77576 0.65109,-0.0485 -1.80782,-0.3117 0.15238,-0.45715 0.65109,-0.0485 0.0416,-0.61645 2.47968,-1.74549 -0.13853,-0.54718 1.19135,-0.25629 0.15239,-0.45715 0.0346,0.38789 0.471,0.0208 0.0416,-0.61647 1.44764,-0.55411 0.39481,0.24935 0.14545,-0.45715 0.72036,-0.27706 -0.13853,-0.54719 0.65109,-0.0485 -0.62339,-1.96712 0.61647,-0.4433 -0.0624,-0.77577 0.69265,-0.67187 0.93507,0.0347 0.63032,-1.45457 0.90044,-0.35325 0.0416,-0.62339 1.03897,0.19395 0.47793,-0.99742 1.50998,-0.8104 -0.13854,-0.54719 0.5472,-1.23291 0.74807,0.097 0.76191,1.50305 0.76191,-0.92123 3.65027,-0.72728 0.52642,0.78962 2.2511,-0.14546 -0.28398,1.30911 v 0 l -3.03381,4.3914 -0.38788,1.37838 0.31169,1.58616 -1.25369,0.74114 -2.23727,2.75674 -1.13594,0.62339 -0.43637,0.58183 0.0277,0.78962 -1.53076,1.44763 -0.2355,1.66929 1.03205,0.72728 -0.8866,0.43637 -0.50563,-0.85195 -1.42686,0.28398 -2.41735,2.09181 -0.76883,2.39657 0.56797,0.31168 -1.17058,1.47535 -2.96455,7.52218 -1.46841,1.90479 0.13853,1.23291 -2.07795,2.54895 -2.77753,1.30911 -1.57231,2.27882 -1.04591,-0.14546 -1.32295,0.93508 -2.88142,0.96278 -1.15673,1.23984 -0.67187,0.0277 -1.11517,1.62773 -1.36452,3.17927 -0.43637,4.80006 0.22858,2.83986 0.89352,3.20697 -0.16625,0.19394 -0.4987,-1.31603 -0.66495,1.03205 0.90738,0.0554 0.21472,0.38788 0.85889,0.12469 0.0485,0.51948 0.83118,0.16624 -2.2996,0.84503 -1.21213,-0.09 -0.73421,0.5472 0.2355,1.21906 0.29784,0.27706 0.33247,-1.00434 0.17316,0.71343 0.43637,-0.12468 0.33247,-1.02513 0.66495,-0.0831 0.27706,0.56797 0.61646,-0.82426 0.15238,0.25629 1.21214,-0.69958 -0.40174,2.02253 0.27706,0.18702 1.05283,-2.27189 0.60953,0.61645 0.25628,-0.17315 0.52641,0.35325 -0.69957,1.80781 0.18008,0.58183 1.05284,-2.42427 0.42943,0.60953 0.38789,-0.18702 0.42944,-0.0416 0.4433,0.29092 -0.09,0.72035 0.0624,0.58183 0.74807,-0.81733 0.71342,-0.0624 -0.33247,0.34633 0.80348,0.62339 -0.20088,0.54719 0.52642,0.24935 0.28398,-0.57489 0.61647,0.6303 -0.3117,0.73422 0.5749,0.27013 0.27706,0.74806 -0.0347,1.11516 -0.42944,0.83811 -0.45022,0.24243 0.17316,1.01127 -0.55412,0.1039 -0.11082,0.63031 -0.5749,-0.5749 -0.50563,1.32989 -1.88402,0.54718 -0.0139,-0.4987 -0.79655,-0.77577 0.16624,-1.27447 0.65801,-0.67188 -0.54719,-0.0416 -0.18702,-0.46408 0.64417,-0.17316 -0.0831,-0.66495 -0.54719,-0.0624 -0.2355,-0.48485 -0.60953,0.46407 0.24243,1.67621 -0.4433,0.56105 0.17316,1.26755 0.88659,0.96278 0.0208,0.6511 -0.96971,-0.36019 -0.64416,0.3117 -0.72728,-0.40173 -0.87275,0.0693 -0.36017,-0.37402 -0.27013,-0.63032 -0.55412,0.22858 -0.63032,-0.64416 -0.47793,-0.74807 -0.94892,-0.18701 -10.65988,1.54461 -8.40185,3.80264 -9.69018,5.62433 -5.45114,3.89269 -2.90914,2.70825 -2.27882,3.13771 0.471,0.47793 -0.17315,2.07102 -1.5931,2.88142 -0.92122,2.85372 0.28398,8.72738 -0.7065,4.06586 v 0 l -0.82425,-0.31862 -1.03898,0.20087 -1.57924,-0.65802 -0.55412,0.22858 -0.62338,-0.60953 -1.14288,0.0416 -1.10131,-0.62338 -0.85196,0.1316 -0.0347,-0.41559 -1.84938,-0.33247 -5.27106,-2.39657 -1.23985,1.35067 -0.35325,1.64158 -0.29783,-0.097 -0.41559,0.8104 -1.4892,0.58875 -0.52642,0.63724 -0.40173,-0.27014 -1.01127,0.60954 -0.62338,-0.60954 0.0139,-1.08052 -0.77577,-0.12468 -0.52642,0.63723 -1.0459,0.19395 -0.22165,-0.3394 -0.90044,0.78269 -3.35935,0.2355 -0.13853,-0.58875 -0.59568,-0.19394 0.45023,-0.38788 -0.36019,-0.92815 -1.10823,-0.63724 -0.90738,-1.78704 0.12468,-0.90044 -1.4892,-5.61047 -1.37837,-0.31861 -1.46842,0.99048 -2.00176,-0.93508 -0.8104,-3.08922 -0.45715,0.38789 -0.0139,1.06668 -2.050243,-0.27706 0.519493,-2.10566 -0.658023,-1.02512 0.50563,-1.03897 -0.13853,-0.58183 -1.37837,-0.32554 -0.56105,0.21472 -0.92122,-0.7065 0.45715,-0.38097 -0.32555,-0.51255 0.61646,-0.86582 -0.43637,-0.6788 0.45715,-0.38095 -0.13853,-0.58183 0.45715,-0.38095 -0.21472,-0.3394 v 0 l -0.24935,-0.74806 v 0 l 0.37403,-0.13853 0.0347,-2.11952 -1.08745,-1.69005 0.56104,-0.2078 0.20779,-1.12902 1.0182,-0.58875 -0.21472,-0.3394 0.64416,-0.45022 -0.13853,-0.5749 0.67188,-0.0416 -0.0624,-0.8104 0.561043,-0.20778 -0.138533,-0.5749 0.561053,-0.2078 0.2078,-1.12209 0.85888,-0.11083 -0.40173,-2.76367 v 0 l 0.56104,-0.2078 0.49871,-1.01819 0.48485,0.0277 0.28399,-1.35067 1.83552,-1.10823 0.5749,-1.2537 0.96278,0.0485 -0.0624,-0.80348 1.11516,-0.42251 0.15239,-0.47101 0.77577,0.11775 -0.0624,-0.80347 0.45022,-0.38095 -0.32554,-0.49871 0.85196,-0.11775 0.7065,-0.68572 -0.0277,-1.44764 1.55154,-0.8104 0.30476,-0.94893 -0.31862,-1.53769 1.39915,-0.33247 0.30477,-0.942 v 0 l 0.84503,-0.11775 v 0 l 1.19137,-1.697 1.14287,-0.0277 1.52382,-1.19829 0.65802,0.98356 1.30218,-0.4987 0.6788,-1.08054 0.85196,-0.12468 0.30476,-0.942 1.30219,-0.4987 0.33939,-0.54027 0.33247,0.49178 0.85889,-0.12468 0.14546,0.56105 0.85889,-0.12468 0.0416,-0.63724 1.16365,-1.06668 -0.43637,-0.65109 0.71344,-0.68572 1.23291,-0.27013 -0.36018,-0.8866 1.45457,0.0624 1.09439,-0.83118 0.22165,0.32554 0.56104,-0.21472 0.0485,-0.63723 1.23292,-0.27014 0.0139,-1.03205 0.56105,-0.21471 0.95586,-1.39224 0.59567,0.18702 -0.0485,0.63724 1.0459,-0.19394 0.87274,-1.15673 0.0485,-0.63031 0.93508,-0.36018 -0.43637,-0.65109 0.82426,-0.51948 -0.13854,-0.56105 0.56105,-0.21472 -0.21472,-0.32555 0.69957,0.34632 0.45023,-0.38095 -0.13853,-0.56105 0.56104,-0.21472 0.21473,0.32555 1.09439,-0.83118 0.40173,0.25628 0.74807,-0.28399 -0.0624,-0.79654 0.63724,-0.45022 v 0 l -0.27707,-1.1221 v 0 l 2.10566,-1.41994 -0.29784,-0.09 0.15931,-0.47101 0.96278,0.0416 0.63724,-0.45022 0.88659,0.27013 -0.15238,0.471 0.37403,-0.14546 0.90045,-0.75499 -0.21473,-0.32553 0.34633,-0.54027 0.58875,0.18008 0.71344,-0.68572 0.62338,0.58183 1.96712,-0.56105 0.69958,0.34633 1.37837,-0.74114 0.72729,0.74114 0.56104,-0.21472 0.97663,-0.9905 -0.51255,-0.41558 0.1593,-0.47101 0.74114,-0.29091 -0.0416,-1.82167 1.5169,-0.18009 0.82426,-0.51948 0.2355,-0.70651 0.85196,-0.12467 -0.09,-1.19136 0.90045,-0.75499 0.20087,-1.10131 1.48227,-0.5749 -0.13853,-0.56105 v 0 l 1.21906,-0.27013 v 0 l 0.40174,0.24935 1.84937,-0.71343 -0.21472,-0.32554 0.3671,-0.14547 -0.21471,-0.32553 0.56797,-1.23985 1.55846,-0.80347 0.0139,-1.02512 1.34374,-1.12902 0.12468,-0.85889 1.39915,-0.3394 1.64851,-2.05025 1.47534,-0.56797 0.40174,0.24936 0.81732,-0.51257 0.0624,-1.64157 0.47793,0.0208 -0.0624,-0.78269 0.6026,-0.83118 -0.21472,-0.31862 v 0 l 1.21214,-0.2632 1.01126,-1.5931 1.28834,-0.49178 0.3394,-0.52641 -0.20088,-1.3299 0.8866,-0.7342 -0.27707,-1.09439 1.28833,-0.48485 0.13854,0.54719 z"
     title="Canterbury"
     id="NZ-CAN"
     style="fill:#ffffff;fill-opacity:1;stroke-width:0.69264984"
     inkscape:connector-curvature="0" />
  <path
     d="m 329.3962,135.35132 3.97581,0.80348 -0.67187,0.75499 0.18009,0.5749 0.471,0.20086 0.64417,0.65109 0.83117,0.40867 2.90221,0.2355 1.55846,1.1498 0.31862,0.65108 -2.7983,4.37063 0.20779,0.471 -1.23985,1.06668 -0.53333,1.8286 0.097,1.43379 -1.50999,1.69699 -0.0139,0.87273 0.99741,0.45023 -0.27013,0.62339 0.29784,0.84503 -0.39481,0.58182 -0.99742,0.35325 -0.14545,0.74114 1.0459,1.21906 -0.48485,0.51256 -0.0347,0.94201 -0.71343,0.51949 0.66495,0.85195 0.0208,0.74113 -0.17316,0.69959 0.0208,1.74547 0.28398,0.8866 0.18702,1.28832 -0.942,0.58875 -0.78963,1.33682 0.29091,1.9602 -2.355,1.89786 -0.17317,0.71343 -1.08745,0.87967 -0.31863,0.74806 -0.55412,-0.0554 -1.25369,0.94893 -0.32555,1.0459 -1.50998,-1.30218 -1.11516,0.39481 -0.86581,0.99742 -0.15932,1.3091 1.04591,0.24243 -1.20521,1.14287 -0.4156,1.32989 0.22165,1.23292 -0.48485,0.84503 0.2355,0.63032 -0.32555,2.27882 v 0 l -1.48227,-0.47101 -0.31168,-0.43637 0.40866,-0.72036 -0.31863,-0.43636 -0.43636,0.36018 -0.49871,-0.36018 0.0485,-0.5749 -0.69265,0.65108 -0.70651,-0.65801 -0.58182,0.79654 -0.24243,-0.65108 -0.25628,0.29091 -1.50305,-0.15238 0.21473,-1.9602 -0.50564,0.58182 -0.69958,-0.65109 -0.54027,0.21472 -0.20779,-1.59309 -0.74806,-0.0762 -0.61646,0.43637 -0.74114,-1.37145 -0.53333,0.21473 -0.71344,-1.01127 0.33248,-0.50564 -0.25628,-1.01127 -1.0182,-0.14545 -0.0277,-0.36018 -0.53335,0.21473 1.0459,-2.09874 -1.50305,-0.51255 -1.09438,0.0692 -1.24677,-0.80347 0.0485,2.02947 -4.91089,-2.49354 v 0 l 1.16366,-0.28399 -0.20087,-0.29091 0.53334,-0.21473 0.45715,-1.30217 0.65802,0.29784 0.40173,-0.72036 0.45715,0.007 -0.48486,-2.97147 6.16459,-3.18619 0.99049,-2.43812 -0.51256,-0.72036 0.42944,-0.36017 -0.2078,-0.284 1.73855,-0.42251 1.2537,-0.78963 0.0416,-0.5749 1.51691,-0.43636 -0.3117,-0.42944 v 0 l 0.29092,-0.85889 v 0 l 0.88659,-0.36018 -0.0624,-0.71343 -0.38788,-0.21472 0.6788,-0.65109 -0.86582,-1.49613 0.53335,-0.21472 0.31168,0.42945 0.63724,-0.0762 3.38706,3.05459 0.35325,-0.14546 2.91606,-9.00445 2.79831,-2.83986 -0.99742,-1.06668 -1.11517,1.0182 -0.61646,-0.8589 0.50564,-0.58182 -0.22858,-0.64416 0.42945,-0.36018 -0.72728,-2.27189 0.14545,-0.42944 1.66929,-0.51257 1.78703,0.0277 -0.7065,-1.8286 v 0 l 2.27882,0.30476 z"
     title="Gisborne District"
     id="NZ-GIS"
     style="fill:#999999;fill-opacity:0.58823529;stroke-width:0.69264984"
     inkscape:connector-curvature="0" />
  <path
     d="m 287.574,235.52235 -0.92122,-0.0554 -0.71343,-0.67187 -0.32555,0.51948 -1.46149,-0.76191 -0.14545,0.45022 -1.32297,-0.24242 -0.24935,-0.6788 -1.1498,-0.3117 0.14545,-0.45022 -0.67879,-0.31169 1.05282,-0.8104 -0.60953,-0.53335 0.36711,-1.12208 -0.60261,-0.53335 0.22165,-0.67187 -0.72728,-2.03639 0.55412,-1.19135 -0.88659,-0.60953 -0.34632,-0.83119 -0.56798,-0.15931 0.37403,-1.11516 -0.6788,-0.30477 -0.0277,-0.37403 -0.92815,-0.007 v 0 l 0.15238,-0.4433 v 0 l -0.8104,-0.83118 -0.74807,-0.0831 -0.0277,-0.37402 -1.49613,-0.16624 -0.51255,0.58875 -1.1221,-1.2814 0.8104,-1.48228 -0.49178,-0.37402 0.33247,-0.51949 -0.20779,-0.29784 0.58875,-0.8104 -0.38789,-0.22857 1.55154,-5.02172 -0.15931,-0.88659 0.36018,-0.14545 0.0208,-0.96278 0.61645,-0.43637 -1.08053,-0.90045 0.45023,-1.32297 -1.08054,-0.90044 1.17751,-0.27706 0.63031,-1.39222 0.81732,-0.13853 0.33247,-0.51257 1.42687,-0.56797 0.56104,0.15239 -0.55412,-2.43121 0.33248,-0.51255 -0.284,-0.0762 0.68573,-0.6511 -0.3117,-0.44328 0.45715,0.007 -0.0277,-0.36711 -0.87274,-0.59568 -0.92122,-0.0139 -0.13161,-0.51256 0.36018,-0.13853 0.0208,-0.95586 0.78962,-0.4987 -0.28399,-1.39916 -1.25369,-0.82425 -1.09439,0.0554 -0.76191,-1.77319 v -1.31603 0 l 0.0485,-0.58182 1.50306,-0.7827 -0.20087,-0.29784 v 0 l 2.9299,2.61129 1.52383,-0.41559 -0.71343,-1.03205 1.24677,-0.49178 0.83811,0.2355 -0.79655,-2.13337 0.85889,-2.02945 4.46066,-0.0624 -0.51256,-2.05025 2.8745,-2.99224 -0.2078,-1.60695 0.50564,-0.56797 -0.27706,-0.0762 0.29784,-2.17492 0.90737,0.0208 -0.12467,-0.51256 0.45021,0.007 0.30477,-0.86581 0.52642,-0.20779 0.75498,0.45022 0.6788,-0.63724 0.38096,0.22857 0.77576,-0.49178 0.97664,1.11517 1.62773,0.10389 1.07361,-1.36451 -0.20087,-0.29784 0.65109,-1.01127 1.05283,-0.42252 0.0277,0.36711 0.63031,-0.0693 0.55412,-1.15673 v 0 l 4.91089,2.50047 -0.0485,-2.02946 1.24677,0.80347 1.09438,-0.0693 1.50305,0.51257 -1.0459,2.09872 0.53334,-0.21472 0.0277,0.36018 1.02512,0.14546 0.25628,1.01127 -0.33247,0.50563 0.71343,1.01127 0.54026,-0.21472 0.74114,1.37144 0.61646,-0.42944 0.74806,0.0762 0.21473,1.59309 0.54026,-0.21472 0.69958,0.65802 0.51256,-0.58183 -0.2078,1.9602 1.50305,0.15238 0.25629,-0.29091 0.24242,0.65109 0.58875,-0.79655 0.7065,0.65802 0.69265,-0.64417 -0.0416,0.5749 0.4987,0.36711 0.43638,-0.36018 0.31862,0.43637 -0.40867,0.72036 0.31169,0.43636 1.48228,0.47794 v 0 l -0.37403,1.56538 0.41558,1.88401 0.39482,0.46408 0.8658,0.31862 0.35325,-0.22858 1.15673,0.73421 -2.10565,2.0641 -0.49871,2.13336 -1.17751,1.34374 -0.58182,-2.8745 -0.58183,-0.88659 0.4433,-0.22857 0.96279,-2.39657 -0.83119,-0.84504 -0.4987,0.63724 -2.0641,-0.74806 -2.14722,-0.19394 -6.89186,0.45023 -5.80441,2.1195 -2.98532,1.54461 -1.26062,1.08053 -0.6026,2.18877 -2.05717,2.52125 -0.76885,0.38789 -0.81732,1.73162 -0.284,1.88401 0.4156,0.98356 0.97663,-0.24242 -0.0277,2.74289 1.21907,2.55587 1.67622,0.87275 1.2814,-0.55412 0.51255,0.34632 -2.15414,3.08229 -0.60953,2.37579 0.32555,1.47535 -1.98098,3.28315 -1.19829,3.17234 -0.22857,1.03898 0.40174,0.76191 -0.61646,0.82425 0.0277,1.05976 -0.71342,0.42944 -1.57232,2.86757 -0.21472,-0.2632 -1.10131,0.3948 -1.64158,1.32989 -0.13854,2.02947 z"
     title="Hawke's Bay"
     id="NZ-HKB"
     style="fill:#999999;fill-opacity:0.58823529;stroke-width:0.69264984"
     inkscape:connector-curvature="0" />
  <path
     d="m 227.02255,258.9824 0.31862,0.20087 -0.0416,0.88659 -0.67879,3.04073 -0.63032,-0.40866 -0.49871,0.71343 -0.40866,-0.38096 -0.72728,0.27013 -0.7827,0.99742 h -0.58182 l -0.097,-0.52641 -0.49871,0.51949 -1.28833,0.22857 0.86581,-1.20521 0.99742,0.22857 0.62338,-0.45715 0.28399,-0.2355 -0.40174,-0.12467 0.22165,-0.40174 0.82425,0.0139 0.0554,-0.54719 0.8104,-0.2355 -0.2355,0.59567 0.7827,-0.0277 -0.21473,-0.29785 0.83811,-0.44329 0.25628,-1.06668 -0.79654,0.72728 -0.42252,0.0347 -1.13595,-0.18009 0.471,-0.54027 0.7827,0.1039 0.66494,-0.4433 z m -8.09707,-5.25722 0.16623,1.04591 -0.74113,0.92123 -0.29092,-0.58876 0.68572,-0.77576 -0.65802,-0.2078 z m -2.36194,-1.08053 0.79654,0.0277 -0.24242,0.92122 -0.47793,0.38789 -0.29092,-1.24677 -0.40866,0.0346 -0.33247,0.3394 0.41559,0.0416 -0.2078,0.45022 -0.42944,0.27014 0.17316,0.78269 -0.2632,0.22857 -0.58183,-0.38095 -0.69265,0.54719 0.1039,0.38788 0.72036,-0.19393 -0.29092,0.46407 -0.7827,0.43638 -0.34632,-0.21473 -0.39481,0.6788 -1.21907,-0.0485 0.27707,-1.08746 -0.64417,0.88659 -0.49178,-0.25628 -0.3394,0.47793 1.0182,0.43637 -1.12902,0.73421 0.49178,0.12468 -0.2078,1.05975 -0.18701,0.27013 0.0139,0.40174 0.3671,0.20087 -0.17315,-0.45022 0.38095,-0.1801 0.38788,-0.0346 0.58183,-1.39915 0.73421,0.37403 0.27706,-0.36018 0.42944,0.31169 0.79655,-0.24935 1.0459,0.2632 -1.18443,0.24936 -0.13853,0.53334 -0.90737,-0.18009 -0.27014,0.65802 0.78962,0.11082 -0.12467,0.74806 -1.02513,-0.2632 0.22165,0.64416 -0.58182,0.1316 0.1316,0.32555 -1.58617,0.31862 0.2078,0.74114 1.68314,-0.79655 -0.51949,0.74806 0.77577,-0.15931 0.20087,0.80347 -0.58875,0.96971 0.15238,0.84504 -0.74114,0.31168 -0.76191,-0.52641 0.29091,0.6511 -1.20521,0.33939 0.32555,0.73421 0.20086,-0.76884 0.74114,0.85889 0.942,0.16623 0.19395,-0.3671 -0.60261,0.18009 -0.45715,-0.73421 1.57924,-0.31862 1.60002,-1.14288 -1.21906,0.20087 -0.59568,-0.097 0.0555,-0.29091 2.26496,-0.66494 0.0277,0.38788 0.60953,0.21472 1.19136,-0.68572 0.50563,0.1039 -0.34632,-0.53335 1.44071,0.29785 1.30911,-0.80348 -1.87015,0.25628 -0.32555,-0.15238 0.1316,-0.5749 -1.55846,0.81733 -0.43637,0.40173 -0.0693,-0.72728 -1.0736,0.90045 -0.82426,-0.0416 -0.67879,0.45023 0.21471,-1.1221 0.42945,-0.34632 -0.51256,-0.0416 -0.26321,-0.942 1.43379,-0.5749 -0.5472,-0.12467 0.18702,-0.4156 0.59568,0.16624 0.097,-1.08054 0.27013,0.2078 0.86582,-0.42944 -0.66495,1.31603 0.42252,1.28833 0.20086,-0.80347 0.53335,0.27706 0.0208,-1.19829 0.45023,-0.27013 0.72035,0.65802 0.22165,-0.23551 -0.72035,-1.39915 0.15931,-0.40866 0.58875,-0.0692 0.0554,-1.16365 -0.38788,0.21472 -0.68572,-0.34633 -0.49179,0.72728 -0.7342,0.24243 -0.80348,-0.18701 0.52642,-0.31862 -0.471,-0.43637 1.40608,-0.11083 -0.63032,-0.8381 0.18702,-0.29784 0.66494,0.3671 -0.0416,-0.87966 0.5472,-0.13854 0.21472,0.39482 -0.27013,0.37403 0.2632,1.03897 0.36018,-0.22857 0.29092,0.29784 0.54718,-0.76192 -0.0347,0.63724 0.471,0.13853 0.65109,1.22599 -0.28399,-2.05024 1.21907,0.88658 0.0277,-0.80347 0.52642,-0.49178 0.49871,0.97664 1.35759,-0.9143 -0.37403,0.84503 -0.58182,0.11083 0.097,1.00434 -0.27014,0.09 -0.1316,-0.46408 -0.45023,0.49871 1.3853,0.99049 0.60954,-1.10824 0.50563,0.1039 0.27707,-0.51257 0.76191,0.2078 -0.68573,0.3394 -0.0346,0.87274 -1.01127,0.84503 0.40174,0.45715 -0.0762,0.63031 -0.6026,-0.38789 -0.40867,0.24243 -0.0277,0.51949 -0.59568,0.22165 0.27013,-0.53334 -0.38096,-0.0346 -0.0485,-1.23984 -0.4433,0.99049 -0.46407,-0.26321 0.0485,0.64416 0.49871,0.32555 -0.14546,0.49178 1.05975,0.13853 -0.41559,0.72036 0.41559,-0.0555 0.0762,0.42252 -0.90737,0.64416 0.0554,-0.60261 -0.50563,-0.41558 0.1039,1.4407 -0.80347,-0.33247 -0.0347,-0.41558 -0.32554,0.44329 0.18009,0.53334 -0.38788,0.0693 -0.29785,-0.7065 -0.47792,0.99048 -0.34633,-0.25628 0.1801,-0.6026 -0.40867,0.3671 -0.21472,-0.21472 -0.45023,0.0416 -0.38788,0.57491 -0.43637,-0.33247 -0.0346,0.93507 -0.72729,-0.63031 0.0416,0.96279 -1.60002,0.40173 -0.21472,0.49179 2.81908,-0.70651 -0.007,0.99049 0.71343,-1.14287 0.79655,-0.09 0.46407,-0.18701 1.70392,-0.52642 -0.31169,0.9143 0.42944,-0.32555 0.2355,0.49871 0.46408,-0.44329 0.66494,0.93508 0.23551,-0.35325 -0.6788,-0.51257 0.32554,-0.28398 0.38096,0.3948 0.97663,-0.38095 0.74807,-0.0346 -0.0277,-0.40175 0.98356,-0.64416 -0.59568,0.73421 0.2078,0.54027 -0.55412,0.29783 0.22857,0.40867 -0.72035,-0.0277 -0.86582,0.82426 0.5472,0.58875 -0.21473,0.41558 -0.63724,0.19395 -0.31168,-0.51256 -0.26322,0.94893 -1.01818,0.0693 0.11082,0.44329 -0.72729,0.0416 -0.17316,-0.34633 0.5749,-0.33939 -0.18701,-0.32555 0.52641,0.0901 0.81733,-1.21215 -0.77577,-0.19394 0.0762,0.40867 -0.65802,0.54027 0.28398,-1.07362 -0.87273,0.50564 -0.22165,1.23985 -1.09439,1.97405 -0.42945,0.0693 -0.56104,1.74547 0.0901,1.413 1.50998,1.78012 -0.80347,0.29783 -0.0347,0.56105 0.82425,0.25628 0.95586,-0.41559 0.65802,0.37403 0.4987,1.68314 -0.22857,2.2996 0.58182,1.48227 0.86582,0.66495 0.27706,-0.21473 0.98356,0.45023 0.49871,-0.25628 -0.0762,0.67879 -1.55153,1.67621 -0.0762,0.70651 -1.39915,2.18877 -3.01996,3.38013 v 0 l 0.28399,-1.3091 -2.25111,0.14545 -0.52641,-0.78962 -3.65027,0.72728 -0.76191,0.92122 -0.76192,-1.50305 -0.74806,-0.097 -0.54719,1.23292 0.13852,0.5472 -1.50997,0.8104 -0.47793,0.99741 -1.03205,-0.19394 -0.0416,0.62338 -0.90044,0.35326 -0.62339,1.45456 -0.93507,-0.0347 -0.69265,0.67187 0.0624,0.7827 -0.61646,0.4433 0.62339,1.96712 -0.64416,0.0485 0.13852,0.5472 -0.72035,0.27706 -0.14545,0.45714 -0.39482,-0.24935 -1.44764,0.55412 -0.0416,0.61646 -0.471,-0.0208 -0.0346,-0.38788 -0.14546,0.45715 -1.19136,0.25628 0.13853,0.54719 -2.47969,1.74548 -0.0416,0.61646 -0.65109,0.0485 -0.15238,0.45715 1.81474,0.3117 -0.65109,0.0485 0.0624,0.77577 -0.66495,1.05975 -0.9143,0.35325 -0.19394,1.08054 -2.2234,0.45715 -0.11775,0.85196 -0.5472,0.21472 -0.50563,-0.40866 0.22857,-0.69266 -0.60953,-0.56797 -0.5472,0.21472 v 0 l -0.76191,-0.11082 v 0 l 0.71343,-1.68313 0.3671,-0.13854 -0.94893,-0.0347 -0.90044,-0.65802 0.22857,-0.69265 -0.79654,-0.4987 0.22857,-0.69265 -0.42945,-0.63724 -1.1013,0.42252 -0.72037,-0.72728 0.56798,-1.21907 -0.0277,-0.38788 -0.76191,-0.11082 -0.31862,-0.47794 -0.09,-1.17058 0.51948,-0.59567 -0.21471,-0.31862 -0.73422,0.27706 -0.0624,-0.77577 -0.39481,-0.24935 -0.63031,0.43637 -0.76192,-0.11082 -0.42944,-0.63724 0.22857,-0.68573 -0.27706,-1.09439 v 0 0 0 l 0.36711,-0.13853 -0.24243,-0.7065 0.35325,-1.53075 0.65802,-0.0485 0.7065,-0.66495 -0.24243,-0.7065 0.8104,-0.50563 0.20088,-1.07361 0.91429,-0.34633 0.0485,-0.61645 0.3671,-0.13853 0.15239,-0.45715 -0.71344,-0.72729 0.22858,-0.6788 0.54719,-0.20778 -0.0624,-0.76885 1.99483,-2.14029 -0.56105,-1.1775 0.25628,-0.29784 0.49871,0.40866 1.42686,-0.93507 1.51691,-2.16107 -0.0139,-1.37837 1.82167,-0.69958 0.0485,-0.60954 0.471,0.0208 0.48485,-0.97663 v 0 l -0.0277,-0.38788 v 0 l 0.20087,-1.06669 0.39481,0.24243 1.08746,-0.42251 0.6788,0.33247 1.37144,-0.3394 -0.34633,-0.85889 -1.10131,-0.95585 0.66495,-1.05283 0.54026,-0.21472 -0.27013,-1.08054 1.44764,-0.5749 0.55412,-1.21213 1.58616,-1.03898 -0.097,-1.15673 1.44763,-1.59309 0.29784,-0.92123 0.82426,-0.13852 0.22164,-0.69265 1.36452,-0.36018 0.3394,-1.53075 -0.24242,-0.69959 0.64416,-2.44505 v 0 l 0.86581,0.73421 -0.58182,0.81733 0.85195,-0.49871 0.14546,0.73421 0.34633,0.0693 0.2632,-0.3394 -0.31169,-0.85195 1.59309,-0.34633 0.0347,-0.33247 1.04591,-0.4433 -0.60954,0.0416 0.13853,-0.49871 -1.50305,0.83118 -0.49178,-0.7342 0.77577,-0.77577 0.50563,-0.37403 0.19395,0.33247 0.24935,-0.60261 0.34632,0.31862 0.46408,-1.12902 0.37403,0.58182 0.48486,-0.19393 -0.30477,-0.6511 0.62338,0.0831 -0.097,-0.56105 0.67187,-0.27013 0.15238,-0.76884 0.54027,0.22165 -0.60954,1.87015 0.74114,0.18702 0.60953,-1.11517 0.39481,0.12468 0.54719,-0.63031 -0.30476,-0.54027 0.69265,-0.0831 1.2537,-1.30218 z m -0.99742,-7.74382 0.30477,0.55412 -0.21473,1.99483 -0.471,0.36711 0.0901,0.74113 -1.08054,2.29959 -0.88659,0.42252 -1.03205,1.70392 -1.5931,0.74806 0.59569,-1.79396 -0.74807,0.30476 0.30477,-2.29959 0.3117,0.83811 1.06668,0.38788 0.32554,-0.2078 -0.9143,-0.47792 -0.22164,-1.34375 0.87273,-1.46149 -0.24935,-0.54719 0.88659,-0.38789 0.34633,-0.60952 0.34632,0.36017 -0.6026,1.11517 0.35325,0.25628 -0.2078,1.08746 0.72035,-1.02512 0.87275,0.21472 0.14545,-0.56797 -1.28833,0.0208 1.3853,-1.05976 0.0416,-0.40866 0.35326,0.0416 z"
     title="Marlborough District"
     id="NZ-MBH"
     style="fill:#999999;fill-opacity:0.58823529;stroke-width:0.69264984"
     inkscape:connector-curvature="0" />
  <path
     d="m 286.65278,235.46001 v 0 0 l 0.92122,0.0624 v 0 l 0.29091,0.89352 -0.28398,1.32296 -1.57925,0.19394 -2.21647,1.56539 -0.28399,1.15672 -1.4892,1.13595 -1.0736,2.24419 -1.77319,1.7524 -1.19136,2.27882 v 0 l -0.17316,-0.56798 0.32554,-0.51949 -0.68572,-0.31861 -0.39481,-1.21907 -1.6208,-0.33247 -0.54719,-0.76192 -0.54027,0.21473 -1.15672,-0.31863 -0.0693,1.20522 -0.29091,-0.0762 0.21472,0.29784 -1.12209,0.0624 -0.79655,-0.45715 -0.40174,0.74806 -0.76191,-0.0832 0.14545,0.52642 -0.83117,0.14546 -0.29092,0.90044 -0.61646,-0.53334 -1.05282,0.81733 -0.60954,-0.53334 -0.25628,0.29783 -0.40173,-0.2355 -0.50564,0.60262 -1.15673,-0.31863 0.69265,-1.64851 -0.40173,-0.2355 0.25628,-0.29783 -0.50564,-0.38097 -0.25628,0.29785 -0.50563,-0.38096 -1.30219,0.13161 v 0 l -0.21472,0.67879 v 0 l 0.0347,0.37403 -0.58183,-0.1593 -0.22165,0.67879 -0.90044,0.36711 -4.04507,-2.0918 -0.87275,1.71777 -1.22599,-0.097 -0.60953,-0.54027 -0.54027,0.22165 -0.11082,0.82425 -1.0459,-0.16623 -1.15673,0.65109 -0.78962,-0.46408 -0.42944,0.36711 -0.85888,-0.24936 -0.14547,-0.52641 0.6511,-0.0624 -0.0346,-0.37402 -0.96971,-0.40175 -0.0416,-0.37402 -0.90044,-0.097 v 0 l 0.73421,-1.53768 1.50998,-6.53861 0.21472,-6.17151 -0.81734,-4.76543 -1.30217,-2.78445 -3.19312,-4.14206 -3.51866,-3.01302 -2.6667,-0.9143 -0.54027,0.12468 v 0 l -0.45715,-0.30476 1.16365,-1.69007 1.03898,-0.16624 0.24935,-0.65108 0.99741,-0.56105 -0.0277,-0.37404 1.19136,-0.27013 -0.20087,-0.30477 0.43637,-0.36017 -0.41559,-0.60953 0.3394,-0.51257 -0.2078,-0.30476 1.78704,-0.7065 -0.68572,-0.68572 0.36017,-0.14547 -0.37402,-1.57231 0.79654,-1.84938 -0.78269,-0.83118 -0.27013,-1.41992 -0.63724,0.0554 -1.29526,-1.5931 0.15931,-0.43637 -0.7065,-1.05975 0.45715,0.0139 -0.0208,-0.37403 v 0 l 0.2355,-0.66495 v 0 l -1.06669,-0.91429 -0.74113,-0.0901 -0.22165,-0.6788 1.26755,-1.82166 0.0346,-0.96279 0.65802,0.3117 0.33939,-0.50564 0.56105,0.15931 -0.20087,-0.29784 1.10824,-1.37837 -0.38095,-0.2355 0.53333,-0.2078 -0.37402,-0.22857 1.17057,-0.27013 -0.40173,-0.60261 0.63723,-0.0554 -0.20086,-0.30476 0.45715,0.0139 -0.20087,-0.29784 0.51256,-0.58183 1.47534,0.18702 -0.87967,-0.98357 0.15932,-0.43637 -2.29267,-0.0624 0.0554,-0.58876 v 0 l 0.36017,-0.13853 v 0 l -0.64415,-1.64157 -0.63725,0.0624 -0.1593,0.43637 -0.31862,-0.81733 -0.8104,0.12468 -0.20087,-0.30476 0.33247,-0.50564 -0.37403,-0.22857 0.33247,-0.51256 -0.40174,-0.59569 0.31862,-0.87966 v 0 l -0.5749,-0.53334 v 0 l -0.87274,0.71343 -0.69957,-1.05283 -0.2355,-1.03897 0.25627,-0.28398 -0.4987,-0.755 0.63724,-0.0554 0.21472,-1.02512 1.24677,-0.47793 v 0 l 1.04591,-0.77576 1.09438,-0.0416 -0.22165,-0.67187 0.56797,-1.15673 0.28399,0.0762 -0.34632,-1.18444 1.37144,0.0416 1.06668,-0.40867 0.76885,-0.85888 0.65801,0.31169 0.51256,-0.56797 0.65802,0.31169 0.99049,-0.19394 0.75499,0.46408 0.88659,-0.34633 0.15931,-0.42944 0.63031,-0.0624 0.49178,-0.93508 0.65802,0.31169 -0.13854,-0.87966 0.58876,-0.78963 0.3394,1.17752 1.07361,-0.40867 0.15238,-0.43637 0.99049,-0.19395 0.75499,0.46408 1.44763,-0.18701 1.07362,1.27447 1.884,-0.54027 0.68572,-0.63723 -0.27013,1.60002 -1.37837,1.2814 0.22165,0.66495 -0.3117,0.8658 -1.41301,2.23727 0.62339,1.26062 0.36018,-0.13853 0.69957,1.03898 -1.00434,1.5169 1.10824,1.64157 -0.82425,1.44765 0.24935,1.03204 1.80782,-0.32554 1.46842,0.18009 -1.0182,1.1498 -0.0347,0.95585 -0.89352,0.35325 0.38095,0.22858 -0.31169,0.87274 0.96279,0.75499 -0.51949,1.90478 -2.02947,4.01737 2.97839,0.72036 0.99742,-0.20779 1.1221,0.31862 0.1593,-0.4433 1.50306,0.54719 0.84503,-1.09439 0.81732,-0.1316 -0.40865,-0.59568 1.0459,-0.78962 0.15238,-0.43637 -0.38096,-0.22857 2.14028,-0.84504 0.2078,-1.02512 3.03381,0.12468 1.67621,-0.85196 0.94201,0.38095 v 0 1.32297 l 0.76883,1.77319 1.09439,-0.0555 1.2537,0.82425 0.28398,1.39223 -0.78962,0.50564 -0.0208,0.95585 -0.36017,0.13853 0.1316,0.51949 0.92122,0.007 0.86582,0.60261 0.0277,0.36711 -0.45714,-0.007 0.31169,0.44329 -0.69265,0.65802 0.28398,0.0762 -0.33247,0.50563 0.55412,2.43814 -0.56105,-0.15932 -1.43378,0.5749 -0.32554,0.51257 -0.82425,0.13852 -0.63032,1.39223 -1.1775,0.27705 1.08053,0.90045 -0.45023,1.32297 1.08747,0.90044 -0.61646,0.43637 -0.0139,0.95586 -0.36018,0.14545 0.15931,0.88659 -1.55153,5.02172 0.38788,0.22857 -0.58876,0.8104 0.21473,0.29784 -0.33248,0.51949 0.49179,0.37402 -0.8104,1.48228 1.12209,1.27447 0.51256,-0.58875 1.49613,0.16624 0.0277,0.37403 0.75499,0.0832 0.8104,0.83117 v 0 l -0.15238,0.4433 v 0 l 0.92815,0.0139 0.0347,0.37403 0.67187,0.30477 -0.3671,1.11516 0.56797,0.15931 0.34633,0.82425 0.89351,0.61647 -0.43637,0.3671 -0.11775,0.82425 0.73421,2.03639 -0.22858,0.67187 0.60953,0.53335 -0.37402,1.12208 0.60952,0.53335 -1.0459,0.81732 0.6788,0.30477 -0.14545,0.45022 1.1498,0.31169 0.24935,0.6788 1.32296,0.24243 0.14546,-0.44329 1.46149,0.7619 0.32555,-0.51255 z"
     title="Manawatu-Wanganui"
     id="NZ-MWT"
     style="fill:#999999;fill-opacity:0.58823529;stroke-width:0.69264984"
     inkscape:connector-curvature="0" />
  <path
     d="m 198.18753,264.71755 -0.87967,0.60952 -0.09,-0.3671 -1.91864,1.53768 0.38788,0.22165 -0.45715,0.86582 v 0 l 0.74114,0.67879 2.0918,-1.20521 -0.39481,-1.413 0.29091,-0.46408 0.46407,0.31861 0.56105,-0.76883 -0.53334,-0.90737 z"
     title="Nelson City"
     id="NZ-NSN"
     style="fill:#999999;fill-opacity:0.58823529;stroke-width:0.69264984"
     inkscape:connector-curvature="0" />
  <path
     d="m 190.02812,31.024396 1.1221,0.748061 -1.18444,0.387884 0.007,2.652849 -1.12209,0.43637 0.13161,-0.907372 -1.29526,-0.09697 -0.45023,0.332472 0.43637,0.464076 -1.2814,-0.02078 0.5472,0.457149 -0.58875,0.450223 1.12902,0.0277 0.8104,-0.519487 -0.31862,0.879664 0.75498,0.08312 0.27014,0.554119 0.0208,0.263207 -0.34633,0.519488 0.43637,0.145456 0.29091,-0.962783 -0.85888,-1.260623 0.87273,-0.15931 1.33682,4.71002 1.09439,1.461491 1.05975,0.602605 1.57232,2.154141 -0.18009,0.754989 -0.36018,-0.06234 -0.62338,-0.53334 -0.22858,-0.935077 -0.54719,-0.304766 0.49178,1.551536 0.68572,0.145456 1.29525,1.558462 2.30653,0.720356 -0.31169,1.004343 -0.80347,0.464074 0.097,1.939421 0.5749,-0.678797 0.097,0.782694 1.05283,0.200869 -0.0901,-0.401737 -0.56105,0.04848 0.1801,-0.817327 0.65108,-0.512561 0.17317,0.644164 0.42252,-0.581826 -1.3299,-3.019953 1.63466,-0.228575 1.11516,-0.630311 0.27013,-1.80089 0.4433,0.519488 -0.0416,1.170578 1.00434,-0.304767 -0.20779,0.387884 0.78269,0.457149 -1.54461,1.052828 -0.93508,-0.152383 -0.25628,0.644165 0.39481,1.551536 0.81733,1.032048 0.51256,0.346326 2.2234,0.138529 0.62339,-0.69265 -0.36711,-0.630311 0.84504,-0.692651 0.0485,-0.526414 0.7065,0.87274 0.96972,-0.04848 0.66494,0.955856 1.2537,-0.616458 0.41558,0.221648 0.19395,1.350667 0.41559,0.290913 0.56105,0.332472 -0.28399,0.796547 -0.87967,0.422517 0.40867,0.748061 0.69957,-0.02078 0.0208,-1.191358 0.48486,0.429443 0.30476,-0.429443 -0.13853,-0.609532 -0.45022,-0.124677 0.18009,-0.283986 1.03205,-0.15931 0.46408,-0.519487 0.28398,0.512561 0.69265,0.01385 0.18702,0.561046 0.6303,0.09697 0.35325,-0.429442 0.64417,0.602605 -0.19394,0.339398 0.73421,0.519488 -0.3671,0.2355 0.34632,1.198285 0.74113,0.741135 2.88143,-0.277059 0.65109,1.288328 0.75499,0.180089 -0.0901,0.526414 h -0.94892 l -0.55412,0.734209 -0.76192,-0.858886 -0.82425,-0.921224 -0.68573,0.53334 0.56798,0.04849 0.40173,0.78962 -0.09,0.242428 -1.10131,0.609531 2.60436,0.131604 -0.34632,0.574899 0.64416,0.464075 -0.0416,1.045902 0.61646,0.318619 -0.0139,0.616458 0.82425,0.401737 0.24936,0.166236 0.98356,-0.318618 1.02512,0.519487 -0.77577,-0.810401 -1.70392,0.131604 -0.40173,-0.71343 0.942,0.0277 -0.86581,-0.858886 0.097,-0.59568 1.3853,1.191359 0.51256,-0.152384 0.56105,0.374032 0.11082,-1.011269 0.89352,-0.55412 0.20086,-0.595679 0.82426,0.297839 0.28399,-1.329887 0.83811,-0.110824 0.25628,-0.39481 0.13852,0.720356 -0.52641,0.08312 -0.33248,0.436369 0.38097,0.117751 -0.15932,0.277059 -0.67186,0.408664 0.87966,0.678797 -0.74113,0.08312 -0.007,0.491781 1.16365,1.780111 1.05975,-0.242428 -0.1316,0.498708 -0.62338,0.03463 0.71342,0.360177 0.15238,0.505635 -0.29784,0.664944 -0.39481,-0.256281 -0.0624,-0.8104 -0.42943,0.06927 -0.18702,-0.443296 -0.27706,0.741135 0.54026,0.15931 0.42945,1.648506 0.44329,-0.04848 -0.27705,0.761914 0.83118,-0.207795 0.37402,0.443296 0.39482,-0.256281 -0.14546,-0.360177 0.42252,0.11775 -0.12468,0.886592 0.69265,0.401737 0.0485,0.741136 0.38789,-0.145457 0.31862,0.851959 -0.097,0.27706 -0.3394,-0.367104 -0.22165,0.346325 0.47793,1.212137 0.99742,0.0069 0.69957,0.782695 -0.0139,2.03639 -0.61646,-0.346325 -0.27013,1.329888 0.54027,1.419932 1.20521,0.09697 -0.45023,0.380958 0.3117,0.505634 -0.0693,0.644165 -0.3394,0.789621 1.17751,2.216478 -0.99049,0.235502 -0.85196,-0.332472 0.32554,-0.221648 -0.29783,-0.630312 -0.77577,0.08312 0.19394,-0.526413 -0.39481,-0.810401 -0.30476,-0.505634 -1.24677,0.25628 -1.23292,-0.623384 -0.6788,0.491781 -0.25628,-0.900445 -0.63031,0.540267 0.38096,1.371446 -0.3394,0.270134 0.42251,0.263207 0.60954,-1.149799 0.24935,0.928151 1.4892,0.387884 0.60953,-0.311693 0.51949,0.602606 0.79655,0.03463 -0.79655,1.032048 -0.24935,2.680555 1.08053,2.548951 0.90044,0.727283 1.27448,-0.187016 0.51256,1.309108 -0.0347,0.43637 0.45715,0.900445 v 0 l -0.9143,0.706503 -0.0693,0.928151 -1.3853,0.526413 -0.0831,0.928151 -1.39222,0.519487 -0.097,0.387884 v 0 0 0 l -0.17316,0.588753 -0.37403,-0.256281 -1.4892,1.219064 v 0 l -0.47792,-0.152383 -0.1801,-0.249354 -0.89352,1.357594 -0.72035,-0.09005 -0.36018,-0.734209 -0.8104,-0.200869 -0.0139,-0.817326 0.9974,-0.616459 0.4433,0.761915 0.93509,0.263207 -1.00435,-1.24677 1.4892,-1.059754 0.31168,-2.285744 -0.66493,2.209552 -1.39224,0.768842 0.0485,-0.720356 -0.51949,0.249354 -0.84503,-0.928151 0.75499,-0.200869 -0.84504,-0.173162 -0.2078,0.374031 -0.51255,-0.394811 -0.0277,-0.845033 0.471,-0.824253 -0.55412,0.394811 -0.27706,-0.214722 -0.66494,0.06233 -0.0208,1.260623 0.40866,-0.283986 0.69265,0.775768 -0.74113,-0.187016 -0.1316,0.360178 0.68572,0.581826 0.89351,-0.374031 0.85889,1.482271 -0.50564,-0.131604 -0.69265,0.471002 0.0277,0.374031 -0.62339,0.166236 -0.78962,-1.045901 -0.38788,0.131603 -0.81733,-0.748062 -0.87967,-1.454564 -1.63465,0.09005 -2.00869,-1.724698 1.3576,2.119508 0.95585,0.581826 0.69958,1.454565 1.60002,1.032048 0.65109,1.960199 0.0346,0.942004 -1.02512,0.872739 -2.65285,0.187015 -0.90738,-1.703918 -0.33247,-2.368863 -2.5351,-4.460665 -14.64261,-19.629697 0.0831,-0.484855 0.5472,0.01385 0.1039,-0.942004 0.54718,-0.644165 -0.24935,-0.422516 0.40867,-0.09697 0.16623,-1.64158 1.23292,-0.53334 0.73421,0.512561 0.24936,-0.914298 0.38788,0.519487 0.99742,-1.149799 0.0277,-0.526414 0.72035,0.08312 0.15239,-0.429444 -1.19829,-0.353251 -0.47792,1.690066 -0.69958,-0.380957 -0.55412,0.858885 -1.71777,-0.09697 -0.47793,0.464076 0.22858,0.630311 -0.54027,0.06233 -0.35325,2.749821 -0.47793,0.242427 -3.90654,-4.772357 -1.57925,-2.590511 0.24243,-0.228575 -2.88835,-3.227748 0.25628,-0.983562 1.84245,0.415589 0.92815,-1.316035 0.17316,-2.438127 -0.78962,-2.507392 -2.18877,-3.726457 -5.7767,-8.041665 -3.18619,-3.206969 -0.73421,-0.145457 -0.42252,-1.142872 -0.90737,-0.457149 0.65109,-1.828596 3.5533,1.094387 1.0736,-0.623384 0.15239,-0.671871 3.01995,0.374032 z"
     title="Northland"
     id="NZ-NTL"
     style="fill:#999999;fill-opacity:0.58823529;stroke-width:0.69264984"
     inkscape:connector-curvature="0" />
  <path
     d="m 346.32456,588.33049 0.40866,0.49178 -0.75498,1.1775 0.1039,0.49871 -0.87967,0.16624 -0.79655,-1.29526 z m -282.213263,-204.2486 0.56798,-0.21471 0.70651,0.37402 2.30651,-0.42944 0.99742,-1.01127 1.5169,-0.56105 0.59568,0.20087 2.00176,-2.01561 0.76191,-0.27706 0.32554,0.51257 1.19829,0.40866 -0.13853,-0.58183 1.10824,-0.83118 v 0 l 0.65109,-0.45022 v 0 l 0.8866,-1.17751 -0.22165,-0.33939 0.72035,-2.16799 -0.16624,-0.99742 0.56797,-0.2078 0.0485,-0.65109 2.56972,-0.72728 -0.24935,-0.75499 0.8381,-0.51949 -0.36017,-0.92122 1.13594,-0.41559 -0.13852,-0.58183 1.73162,-0.2078 -0.0277,-0.40865 1.78012,-0.85889 0.471,1.08746 2.62514,0.0901 0.56797,-0.20779 0.13161,-0.88659 0.38095,-0.13853 -0.22165,-0.3394 0.75499,-0.27707 0.60953,1.66237 1.11517,0.63723 1.9325,-1.34373 0.31861,-0.94894 1.15673,-0.007 0.79655,-0.92123 1.34373,-0.0831 0.39482,-1.18443 -0.43637,-0.67187 0.31169,-0.94893 1.07361,0.22165 1.419923,-0.31862 0.51257,0.42944 v 0 l 0.40173,2.76367 -0.85888,0.11083 -0.20087,1.12209 -0.561053,0.2078 0.138543,0.5749 -0.561053,0.20779 0.0624,0.81733 -0.67187,0.0416 0.13853,0.5749 -0.63723,0.45023 0.21472,0.33939 -1.0182,0.58876 -0.20779,1.12902 -0.56105,0.21472 1.09439,1.69007 -0.0347,2.1195 -0.37403,0.13853 v 0 l 0.24935,0.74806 v 0 l 0.22165,0.3394 -0.45715,0.38096 0.13853,0.58182 -0.45715,0.38097 0.43637,0.67879 -0.45715,0.38096 0.17317,0.99742 -0.45715,0.38095 0.92122,0.7065 0.56105,-0.21472 1.37837,0.32555 0.13853,0.58182 -0.50563,1.03897 0.65801,1.02513 -0.51948,2.10566 2.050243,0.27705 0.0139,-1.06667 0.45715,-0.38789 0.8104,3.08921 2.00175,0.93509 1.46842,-0.99049 1.37837,0.31862 1.4892,5.61046 -0.12468,0.90045 0.90738,1.78703 1.10824,0.63724 0.36018,0.92815 -0.45023,0.38788 0.59568,0.19395 0.14546,0.58875 3.35935,-0.2355 0.90045,-0.7827 0.22165,0.34632 1.0459,-0.19393 0.52641,-0.63724 0.78269,0.12467 -0.0139,1.08054 0.62339,0.61646 1.01127,-0.60953 0.40866,0.27013 0.52642,-0.63724 1.48919,-0.58875 0.41559,-0.8104 0.29784,0.097 0.35325,-1.64158 1.23985,-1.35067 5.27106,2.39657 1.84938,0.33247 0.0347,0.41559 0.85196,-0.1316 1.10131,0.62339 1.14287,-0.0416 0.62339,0.60954 0.55412,-0.22165 1.57924,0.65801 1.03897,-0.20086 0.82426,0.31861 v 0 l -1.63466,3.00611 -2.88835,2.88142 -0.22164,0.59568 0.27013,0.59567 -1.6208,1.20522 -1.60695,3.32472 -0.0277,1.08053 -0.99741,2.10566 0.1593,1.13595 0.8866,0.0761 0.20087,0.61647 -0.0554,0.95585 -0.33248,-0.2632 -0.51948,0.45715 -0.69957,1.44764 -0.0693,0.61645 0.63724,0.69265 -2.07103,2.28575 -0.74113,1.30217 -0.0832,1.08054 -0.84503,0.96278 -0.20087,-0.3948 -0.45022,0.2355 -0.26321,0.85888 -0.12467,0.35325 -0.0624,0.94201 -2.24418,2.02253 -0.0139,0.79655 0.77577,-0.48485 0.77577,0.32554 0.32554,-0.1039 0.66495,0.8866 0.76191,-0.24243 0.44329,0.93508 -2.15414,0.67879 -0.007,0.9143 -0.60953,0.0346 -1.01819,1.57924 -1.64851,0.942 2.07795,-0.45022 0.51948,-1.13595 1.27449,-0.22165 0.55411,-0.2355 -0.0624,-0.7065 1.42685,-0.67879 0.18702,-0.97664 0.63724,1.17058 -0.53334,0.72035 -0.0347,0.85889 -0.96971,-0.22165 -0.3671,0.32555 0.3394,0.33247 1.47534,-0.37403 -0.0624,1.13594 -1.66235,0.2355 0.0693,-0.66494 -0.69957,-0.46408 -0.0832,0.55412 0.7827,1.0182 -0.64416,0.471 -1.51691,-0.29091 -0.40173,0.24936 0.007,0.69265 -0.25628,0.0139 0.0208,-0.7065 -2.44506,0.3117 -4.12127,1.19828 -1.17058,0.76191 -2.61129,3.62948 -0.0485,1.91865 -0.74114,1.93942 -4.55763,3.40091 -0.76884,1.17057 -1.09439,0.50564 -1.09438,1.16365 -2.58359,1.20521 -0.42945,2.00869 0.50564,0.54719 0.0485,1.32296 -0.58876,0.33247 -0.09,0.59568 -0.61646,0.5472 -2.659773,-0.63031 -1.07361,0.48485 0.38789,0.40866 0.942,-0.74113 0.561053,0.51256 0.49177,-0.24936 0.53335,0.51257 -0.7827,0.74113 0.11083,0.40867 -1.336823,0.76191 -0.99742,0.0761 0.007,0.6511 -0.62338,0.28398 -0.1316,0.51949 -0.86582,-0.78962 -0.27013,0.25628 -0.56104,-0.38788 -1.17058,0.18701 -0.27014,0.92122 -0.59568,-0.15931 -0.25627,0.755 0.24935,0.1316 -1.10824,0.41558 -0.75499,-0.20778 -0.56797,0.45022 0.29091,0.48485 -0.33247,0.27706 -1.9602,-0.67187 -0.74113,0.44329 -0.39482,0.14547 -0.52641,0.8381 -0.51949,0.15931 -0.25628,-0.29784 v 0 l 0.2078,-1.46842 0.46407,0.0208 0.11083,-0.942 -0.81733,-0.58875 0.15238,-0.5195 0.8866,-0.13852 0.76884,-1.44764 -1.88401,-1.03898 -0.5749,-0.89352 -0.0347,-0.43637 0.76885,-0.30476 -0.0693,-0.86582 0.38788,-0.15238 0.0416,-0.68572 -0.45715,-0.71343 -1.33681,-0.58182 0.2355,-0.76192 1.31604,-0.96279 -0.4156,-0.27705 0.5472,-0.65802 -0.45022,-0.7065 0.56104,-1.77318 -0.3394,-0.53335 0.51256,-1.08746 -0.83118,-0.55411 -0.40174,-1.39224 -0.80347,-0.12467 0.0485,-0.6788 1.03897,-0.63031 -0.0624,-0.85889 -0.72035,-0.38095 0.5472,-0.6511 -0.14546,-0.6026 -1.32296,-0.58182 -0.89352,-1.41301 -0.0624,-0.85889 0.54718,-0.65109 v 0 l 0.24244,-0.75498 v 0 l -0.63724,-0.63032 0.67187,-1.57923 -0.63724,-0.63032 0.27013,-0.32555 -0.71343,-0.38095 -0.15931,0.4987 v 0 l -1.1775,0.0208 v 0 l 0.21472,-1.1775 0.46408,-0.39481 -0.66495,-1.05283 0.0416,-2.20263 -0.30477,-0.1039 0.29091,-1.42685 0.46408,-0.39482 0.097,-1.34373 0.76192,-0.29092 0.42944,-0.81732 v 0 l 0.13161,-0.92123 v 0 l 0.7342,-0.72036 0.80348,-2.47968 0.31169,-2.50739 0.35325,-0.56797 1.2537,-0.26321 0.35325,-0.56797 -0.471,-1.11517 -0.38097,0.14545 -0.44328,-0.69957 -0.38789,-1.36452 -1.41993,-0.75499 -0.0624,-0.84503 -0.65802,-1.0459 -1.57231,1.24677 -2.83294,5.62431 -0.65109,0.46408 -0.60261,-0.20087 0.0485,-0.67188 -0.40866,-0.27705 -0.5749,0.21472 0.0277,0.42252 -0.82425,-0.55412 -0.5749,0.21472 -0.097,-2.77753 -0.68572,0.0416 -0.74114,-0.80347 -0.90044,-0.30477 0.35325,-0.56797 -0.09,-1.26063 -0.58182,-1.29525 0.27013,-0.31862 -0.40866,-0.27705 -0.76192,0.2909 -0.89352,1.20522 -1.25369,0.25628 -0.62338,0.88659 -2.21649,0.61646 -3.71952,0.097 -0.5749,-1.29525 0.21472,-1.16366 -0.5472,-0.87274 0.35325,-0.56104 -1.23291,-0.83118 -0.22164,-0.34633 0.27013,-0.31862 -0.74114,-0.80347 0.27706,-0.31862 -0.71343,-0.38096 0.63031,-0.87966 v 0 l 0.16624,-0.49178 v 0 l 0.38096,-0.14547 -0.22165,-0.34632 0.38095,-0.13853 -0.0277,-0.42252 0.68572,-0.0416 0.29784,-1.39915 -0.29784,-0.1039 0.5472,-0.63032 -0.32555,-0.51948 -1.53075,0.56797 -0.85197,-0.96971 v 0 l -0.74113,-0.79655 v 0 l -0.46407,-1.11516 -1.01127,-0.48486 0.32554,-0.97663 -0.78962,-1.63466 0.38096,-0.13853 v -1.49612 l 1.17057,-0.007 -0.13853,-0.58875 0.5472,-0.63032 v 0 l 0.16623,-0.48485 v 0 l 0.0277,-1.07361 0.38095,-0.13852 -0.21472,-0.34633 -0.38096,0.13853 -0.46407,-1.10824 0.27013,-0.3117 -0.21472,-0.34632 0.73421,-0.69958 -0.40867,-0.27705 v 0 l 0.35325,-0.55413 v 0 l -0.0277,-0.41559 0.38095,-1.62772 0.56798,-0.21473 -0.13853,-0.58875 0.38095,-0.13853 -0.19393,-1.413 1.5446,-1.63466 z"
     title="Otago"
     id="NZ-OTA"
     style="fill:#999999;fill-opacity:0.58823529;stroke-width:0.69264984"
     inkscape:connector-curvature="0" />
  <path
     d="m 87.141907,708.74767 0.7342,0.14545 -0.31861,1.11517 0.59568,0.40866 0.0624,0.18702 -0.20779,1.48919 0.98356,0.33248 -0.19395,0.55412 -0.67186,0.0139 -0.76884,-0.81733 -1.3853,-0.0277 -0.60954,0.80347 1.05284,-0.47794 1.84937,1.04591 -0.95586,1.16365 -0.87966,-0.49871 0.28398,0.58182 -0.7827,0.13162 -0.2355,-0.50564 -0.38788,0.57489 -0.11775,-0.78962 -0.64416,-0.0554 -0.29784,-0.7065 -0.32555,0.0208 0.0831,-0.38096 -0.73421,-0.15931 -0.49871,0.30477 -0.63031,-1.08054 0.72036,-0.56105 0.33246,0.42945 0.73422,-0.2078 -0.0901,0.36711 0.6026,0.20779 1.54462,-2.81908 -0.58183,-0.42945 1.42686,0.0139 0.0762,-0.45715 z m -88.506799,-70.60873 1.53075602,1.00434 1.73855098,-0.27013 0.318619,0.2632 0.526414,-0.72035 2.022538,0.56105 1.544609,0.88658 -1.06668,0.0347 0.318619,0.77576 -1.156725,0.63724 -1.787038,0.58183 -1.20521,-0.94201 -0.03463,0.35326 -1.87015498,-0.49871 -0.124677,-0.96971 -0.304766,0.42252 -0.68572402,-0.1801 -0.06927,-1.06668 -0.429443,-0.31169 0.595679,-0.1316 -0.08312,-0.63031 z m 6.88494,-14.02616 0.588752,0.62338 0.491782,-0.56104 0.498708,0.25627 -0.671871,0.77577 0.13853,0.45715 -1.260622,0.51949 1.413005,-0.16624 1.274476,-1.12902 0.0762,0.36711 0.477928,0.0208 -0.824253,0.55412 0.588753,0.43636 0.11775,0.87967 -2.029464,-0.0485 0.380958,0.24243 -0.374032,0.67187 0.886593,0.15238 -0.270134,0.54027 -0.512561,0.43637 -1.122093,-1.03898 -0.152383,0.36711 0.990489,0.90737 -0.04156,0.28398 -0.422517,0.24935 0.644164,0.40174 -1.288329,-0.20087 0.748062,1.03898 -1.080534,0.21472 0.318619,0.21472 -0.567973,0.42252 1.648508,-0.13853 0.09005,0.66494 -0.526414,0.38096 -1.322961,-0.43637 0.824254,0.72036 -0.796548,0.16624 0.13853,0.22164 0.678797,-0.15238 0.658017,0.42252 -0.11775,0.38095 0.872739,1.03205 -0.796547,0.74806 0.94893,0.0208 -0.374031,0.40173 0.512561,0.2355 -0.817327,0.38789 1.08746,0.29784 -0.311692,0.84504 0.332472,0.27013 -0.512561,0.51949 -1.413006,-0.0347 -1.66236,-1.1775 -0.858886,-1.11517 -0.103897,0.76885 -0.796548,0.18009 -0.207795,-0.2355 0.886593,-0.68573 -0.221649,-1.89093 -0.8104,-0.11775 -0.332472,-0.6511 -0.33247198,1.06669 0.69264998,0.6026 0.166236,0.7827 -0.283987,0.18701 -0.450222,-0.3671 -0.50563398,-1.12903 -0.283987,0.5749 0.86581298,0.94201 -0.01385,0.56798 -0.54719398,-0.13854 0.89351898,1.09439 -0.270134,0.3671 -1.03204798,0.15239 -1.10824,-0.63031 -0.46407602,-1.21214 -0.103897,0.78962 -0.893518,0.43637 -0.429443,-1.78011 0.574899,-0.82426 -0.318619,-0.45715 1.50305,-0.47792 0.78269502,-1.1498 0.32554500207,-0.2632 1.44071197793,-0.39482 1.489197,-1.82167 -0.387884,-1.19135 0.838107,-2.78445 -0.07619,-0.48486 -0.907372,0.14546 -0.06233,-0.38789 0.893518,-0.0901 -0.05541,-0.3394 -0.637238,-0.67879 -0.900445,0.2632 0.83118,-0.72728 1.350667,-0.0555 0.374031,-0.62338 0.242428,0.16623 -0.332472,0.92122 0.616458,-0.97663 0.401737,0.46408 z m 3.393984,-1.16366 0.498708,0.40174 -0.06234,0.54027 -1.004342,-0.27014 -0.644165,0.27014 0.256281,-0.63724 z m 42.258575,-154.80031 2.91605,1.46149 0.78962,2.80523 0.72036,0.28398 0.18701,0.74114 1.37145,0.5472 -0.21473,0.89352 1.65544,0.22857 0.007,0.38096 0.16624,0.36017 0.36711,0.63725 -0.64417,0.65801 -2.04332,-0.63031 -0.14545,0.51256 0.0762,0.36711 -0.45022,0.0554 -0.90737,-0.68572 0.53333,-0.2078 -0.942,-1.15672 0.21473,1.03897 -0.6788,-0.13853 -0.36018,0.66495 0.32555,0.87966 -0.75499,0.33939 -1.09439,1.42687 1.42686,-0.82425 0.64417,-0.97664 0.72035,-0.19395 0.38788,0.58184 -0.14545,0.471 1.06667,-0.17317 0.96972,0.54027 0.86581,-0.0901 -1.55154,1.07361 1.39223,0.29784 0.36018,-0.14545 0.15931,-0.79655 0.82425,0.1039 -0.19394,-1.27448 0.74806,-0.74114 0.18701,0.3394 -0.49178,0.41559 -0.14545,1.37145 1.0459,0.76883 -0.37403,0.47101 0.18009,0.39481 h 0.55412 l -0.75499,0.48485 0.26321,0.61647 -0.35325,0.38095 -0.67187,-0.2632 -0.21473,0.56797 0.49178,0.84503 0.6511,-0.1316 0.36017,0.75498 -0.58875,0.0693 -0.1316,-0.53334 -0.65802,-0.29091 -0.73421,0.50563 0.27706,0.99742 h -0.47793 l -0.32554,0.3394 -1.32989,-0.78962 -0.37403,0.11775 -0.007,0.63724 -0.45023,0.20779 -0.8381,-0.42944 -1.35759,0.8381 -0.3394,-0.45022 -1.3853,1.66236 -0.82426,-0.0416 -0.13161,0.53334 -0.43636,-0.11775 -0.70651,0.50563 -0.83117,-0.45022 -0.61646,0.14546 -0.22165,-0.51949 -0.97664,0.42945 -0.66494,-1.23292 -0.29091,0.78269 -0.49872,-0.14545 0.1801,1.06668 -0.58875,0.3948 -0.29092,-0.2909 -0.28398,0.63724 -0.71343,-0.0555 0.11775,0.53334 -0.84504,0.47793 -0.6026,-0.27707 0.24242,0.46408 2.00177,-0.29784 -0.007,-0.49178 0.44328,0.0416 0.22165,0.29091 -0.51948,1.37838 -0.88659,0.27705 0.16624,-0.96278 -1.00435,0.36711 0.29784,0.1593 -0.47793,0.71343 -0.92122,0.47101 -1.28833,-0.19395 -0.0347,-0.58182 -0.53334,0.471 -0.48485,-0.17317 0.38095,-2.47968 0.86582,-0.76884 0.54026,0.22857 0.21472,-0.64416 1.10132,-0.36711 0.20779,-0.41559 -0.0692,-0.69265 -0.3117,0.51257 -0.17316,-0.27013 0.92123,-1.5931 -0.56105,-0.0485 -0.2355,-0.8866 0.56797,-0.2632 1.09438,-1.69007 0.83812,-0.20086 1.08745,0.56104 0.50564,-0.22858 -0.13854,-0.46407 -0.37402,0.0208 -0.17316,-0.755 0.42943,-0.42944 -0.56797,-0.22858 0.15239,-0.72727 -0.4433,-0.0416 -0.0485,-1.30911 0.4433,-0.24935 -0.29784,0.42944 0.24243,0.58875 1.26062,-0.17316 1.07361,-1.78704 -0.0277,-1.10824 -0.5472,-0.45715 0.3394,-0.2632 -0.19393,-0.7827 -1.36452,-2.07102 0.47792,-0.32555 -0.40866,-1.24677 0.6026,-1.06667 -0.19394,-0.54027 1.8563,-1.09439 1.23292,0.66494 z m -33.44807,-22.94057 0.72036,0.29785 -0.0485,0.40866 -1.26755,1.05282 -0.18009,-1.10131 z m -3.0061,-2.41042 0.79655,0.46408 -0.39481,0.22857 -0.0208,0.60261 -0.74806,-0.4433 z m 6.86417,-11.22785 0.16623,0.19394 -1.99483,0.92816 -2.48662,0.3948 -0.0416,-0.38788 0.69266,-0.0139 0.3394,-0.46407 z m -6.28927,-0.0208 0.69958,0.45715 -1.2537,0.48486 -0.0139,0.34632 -1.01127,-0.27014 0.14546,-0.69265 1.07361,0.0762 -0.0831,-0.3671 z m 8.02782,-0.86581 0.98356,0.14545 0.32555,0.471 -1.697,0.59569 -0.89352,-0.22165 -0.0623,-0.49179 0.49178,-0.45022 z m -4.24595,-4.7308 0.96279,1.08053 0.20779,2.80524 -0.17316,1.05282 -0.83811,0.84503 -0.63724,0.18702 -0.49178,-0.41559 -1.51691,0.51256 0.09,-0.35325 -0.45022,-0.21472 0.36711,-0.69957 -1.2537,-0.46408 0.50564,-0.17317 0.58182,-0.31862 -0.20087,-0.24242 -0.55412,-0.28398 0.0346,-0.62339 -2.97147,2.98532 0.097,-1.08053 1.28141,-1.30912 0.39481,-0.94893 0.20779,0.13853 -0.007,-0.78269 0.62339,-0.74806 0.33247,0.37403 1.48919,-1.1221 0.61646,0.34633 0.755,-0.52641 0.24242,0.42251 z m 7.65378,-17.12923 0.18009,0.60953 -0.55412,1.41994 1.44764,3.58792 -0.73421,0.21472 -2.95069,-2.35501 0.99742,-1.9602 1.18443,-1.46149 z m 30.58742,-33.09482 1.53768,0.45023 2.34116,-1.10824 1.26755,0.14546 0.72728,0.76884 0.96971,0.0485 0.27013,1.16365 -0.27013,0.3117 0.92123,0.7065 -0.15932,0.48485 1.19137,0.39482 -0.15932,0.48485 -0.67879,0.0416 0.0277,0.4156 -1.02512,0.59567 0.62338,0.61647 -0.27013,0.31168 v 0 l -0.15931,0.48487 v 0 l -0.56798,1.69698 0.21472,0.34633 v 0 l -1.35759,0.0831 -1.54461,1.63466 0.19394,1.41301 -0.38096,0.14545 0.13853,0.58875 -0.56797,0.21472 -0.38096,1.62773 0.0277,0.41559 v 0 l -0.35325,0.55412 v 0 l 0.40867,0.27706 -0.73422,0.69957 0.22165,0.34633 -0.27013,0.31169 0.46407,1.10825 0.38096,-0.13853 0.22165,0.34632 -0.38096,0.13853 -0.0277,1.0736 v 0 l -0.15932,0.48487 v 0 l -0.54719,0.6303 0.13853,0.58875 -1.17058,0.007 v 1.49612 l -0.38096,0.13854 0.78963,1.63465 -0.32555,0.97663 1.01127,0.48486 0.46407,1.11516 v 0 l 0.74114,0.79655 v 0 l 0.85196,0.96971 1.53075,-0.56797 0.33248,0.51948 -0.54719,0.63032 0.29783,0.1039 -0.29783,1.39915 -0.68572,0.0416 0.0277,0.42252 -0.38096,0.14545 0.22165,0.34633 -0.38096,0.14546 v 0 l -0.16623,0.49178 v 0 l -0.63032,0.87967 0.71343,0.38095 -0.27013,0.31862 0.74113,0.80348 -0.27013,0.31862 0.22165,0.35325 1.23292,0.83118 -0.35325,0.56104 0.54719,0.87275 -0.21472,1.16365 0.5749,1.29525 3.72645,-0.097 2.21648,-0.61646 0.62339,-0.88659 1.25369,-0.25628 0.89352,-1.19829 0.76191,-0.28398 0.40867,0.27705 -0.27014,0.31862 0.58183,1.29526 0.09,1.26754 -0.35325,0.56798 0.90045,0.30477 0.74113,0.80347 0.68572,-0.0416 0.097,2.77752 0.5749,-0.21472 0.82426,0.55412 -0.0277,-0.42252 0.5749,-0.21472 0.40867,0.27706 -0.0485,0.67187 0.60262,0.2078 0.65108,-0.46408 2.83294,-5.62432 1.57232,-1.24677 0.66494,1.04591 0.0624,0.84503 1.41994,0.75499 0.38788,1.36451 0.4433,0.69959 0.38095,-0.14547 0.471,1.1221 -0.34632,0.56797 -1.2537,0.26321 -0.35325,0.56797 -0.30476,2.50739 -0.80347,2.47969 -0.73422,0.72035 v 0 l -0.1316,0.92123 v 0 l -0.42944,0.82426 -0.76191,0.29783 -0.097,1.35067 -0.46408,0.39481 -0.29092,1.42686 0.30477,0.1039 -0.0416,2.20262 0.66494,1.05283 -0.46407,0.39482 -0.2078,1.1775 v 0 l 1.17751,-0.0208 v 0 l 0.15931,-0.49871 0.71343,0.38096 -0.27013,0.32555 0.63724,0.6303 -0.67187,1.57925 0.63723,0.6303 v 0 l -0.24243,0.755 v 0 l -0.54719,0.65109 0.0624,0.85888 0.89352,1.41301 1.32988,0.58183 0.14546,0.6026 -0.54719,0.65802 0.72035,0.38095 0.0624,0.85889 -1.03897,0.63031 -0.0485,0.6788 0.80347,0.12468 0.40174,1.39222 0.83118,0.55412 -0.51256,1.08747 0.33939,0.53333 -0.56104,1.77319 0.45023,0.7065 -0.5472,0.65802 0.41559,0.27706 -1.31603,0.96971 -0.2355,0.76191 1.3368,0.58182 0.45715,0.71344 -0.0416,0.68572 -0.38788,0.15238 0.0693,0.86582 -0.76884,0.30476 0.0347,0.43637 0.5749,0.89352 1.884,1.03897 -0.76883,1.44765 -0.8866,0.13852 -0.15238,0.51949 0.82425,0.58876 -0.11082,0.942 -0.46408,-0.0139 -0.20087,1.46842 v 0 l -1.46149,-0.29092 0.87967,-0.90044 -1.08747,-0.76192 -0.41558,1.56539 -0.18009,0.74807 -1.01127,0.33247 -1.07361,-0.13854 -0.74806,0.27707 -0.34633,-0.39482 -0.56797,0.28399 -0.69265,-0.63724 -2.59743,0.15932 -0.6511,-1.39224 0.26321,-0.62338 -0.7827,-0.64417 -0.29783,-0.471 -2.09874,-0.48485 -3.26237,0.68572 0.17316,-0.69265 0.60953,0.29091 0.45715,-0.28398 -1.17751,-0.61646 -1.21906,0.22858 0.93508,1.02512 -1.75933,0.85888 -2.35501,0.0346 -1.30218,-0.49871 -0.43636,0.31862 -0.21472,-0.15239 0.45022,-0.6303 1.67621,0.17316 0.27013,-0.19394 1.69006,0.62338 0.41559,-0.2632 -0.29784,-0.63032 -1.78011,-0.56797 -1.02511,-0.0208 -0.92123,0.5472 -0.40174,-0.74114 0.24936,-0.28399 -0.5749,-0.49178 -0.45023,0.62339 -0.22165,-0.28399 -0.65801,0.24936 0.42944,1.37837 0.40867,0.11082 0.76884,0.9143 -0.83119,0.51949 -0.53333,-1.23984 -0.96279,-0.36711 -0.18701,-1.10131 -1.01819,-0.13853 0.19393,-0.45715 -0.3671,-0.92122 1.89786,-0.3394 h 0.76191 l 1.43379,-0.87274 0.0139,-0.40867 -0.7827,-0.11775 0.0831,-1.56538 -0.37403,-0.51949 -0.29091,0.16624 0.1316,1.1013 -1.28833,0.36711 0.38096,0.37403 0.27013,0.93508 -0.85196,0.21472 -1.90478,-3.96196 -2.04332,-2.05024 -2.05024,-0.17316 -0.83118,0.78962 0.45715,0.87273 -3.38014,-1.0736 -0.92122,0.48485 0.13853,0.90045 -1.55153,-0.942 -1.17751,0.87273 -0.76191,-0.90737 -0.55412,-0.0831 -0.11083,-1.21907 -1.08746,-0.19394 0.0208,-0.72728 1.07361,-0.54027 -0.38788,-1.3853 -2.68749,-2.61129 -3.06151,-1.5446 -2.67363,-0.1039 -0.29092,1.01819 -1.08053,0.63724 0.29784,1.35067 -0.56104,0.90044 -1.83552,-0.25628 -1.5931,0.6788 -2.33423,-0.48486 -0.63031,0.28399 -2.36193,-1.17058 -1.697,0.097 -2.25111,-0.77577 -1.69006,0.13852 -0.82426,0.755 -0.39481,-0.72037 -0.96971,-0.0139 -0.29091,-0.34633 -1.32296,0.18702 -1.17751,-1.91864 -0.51256,-0.15931 2.14722,-1.66929 0.72035,-0.0277 -0.13853,-0.83812 0.45023,-0.7619 0.33247,-0.30477 0.83118,-0.17316 0.36017,-0.49179 -0.20779,-1.74547 2.20263,-0.79655 1.69699,-2.00869 -1.30218,0.74114 -0.51256,0.78962 -2.05717,0.37403 0.31861,0.32555 -0.84503,0.3394 -0.46407,0.81732 0.74806,1.33682 -0.97664,0.20087 -0.42944,0.82425 -0.45022,-0.86582 0.60953,-0.92122 -0.0623,-0.38788 -0.85889,1.17058 -1.08053,1.22599 -0.0277,-0.471 -0.8104,-0.4433 -0.73421,0.76191 0.0831,0.36019 -0.59568,0.12467 -0.0901,-0.78962 0.471,-0.32555 0.27706,-1.29525 0.7827,-1.69699 1.89094,-0.6788 2.15414,-0.0347 -0.46408,-0.56103 0.4433,-0.13854 -0.16624,-0.18008 -1.57924,0.47792 -1.59309,-0.35325 1.10824,-2.74982 0.48485,-0.34632 -0.56797,0.0693 -2.39658,3.89961 -1.08746,0.15932 -1.55846,1.0736 -0.71343,0.39482 -0.63724,-0.5472 0.0831,-2.21647 -0.69265,-1.42687 0.36018,-1.64157 -0.24935,-0.85889 0.53334,-0.35325 -0.0139,-0.56798 0.65109,0.0139 0.31169,-0.50563 1.03898,-0.36018 1.96019,0.0277 0.72036,-0.13853 4.39833,-1.1498 1.42686,0.0831 1.16365,-0.92815 1.86323,-0.22165 0.81733,-0.6303 -0.86581,0.13852 0.42944,-0.90044 -0.25628,-0.0624 -0.60953,1.19135 -2.99225,-0.85195 -2.50047,0.88658 0.63032,-2.30652 5.02171,-1.413 0.84503,-0.99742 -1.10131,0.8381 -1.98098,0.13161 -3.25546,1.35066 -0.12467,-2.67362 1.03205,-0.0693 0.51256,-0.63724 2.27881,-0.97664 1.11517,0.47793 1.19136,-0.471 0.69957,0.46408 0.38096,-0.27014 -0.942,-0.41559 -1.2814,0.40867 -0.83811,-0.22858 0.0346,-0.48485 1.64158,-0.50564 0.96278,-0.7065 -0.37403,-0.35325 -2.61821,1.11517 -0.0693,0.51256 -2.60437,0.63031 -0.96278,0.7827 -1.24677,0.18701 -0.59568,-0.34633 0.54027,-2.91605 0.7065,0.19394 0.19394,-0.26321 -0.44329,-0.47792 0.0623,-0.54027 1.09439,-2.67363 1.3853,-0.2355 2.38271,1.5931 -0.51256,-0.70651 -0.19394,-1.33681 -0.29091,1.19828 -1.35067,-1.21906 -0.87274,-0.13161 -0.1316,-0.71343 0.7065,-1.35759 1.01127,-0.95586 0.38096,-0.96278 2.86757,1.63465 -1.43379,0.95586 1.9325,-0.83118 1.61387,1.19828 -0.27706,0.54027 0.49178,-0.45022 0.87274,0.31169 1.03205,1.93942 0.22857,1.31603 -1.15672,1.12902 -0.37403,1.11517 0.8104,-1.33682 1.23291,-1.0736 0.78269,0.85196 -2.15413,-4.052 -1.09439,-0.49178 -0.97664,-1.1498 0.73421,-0.90045 2.36886,-0.41559 0.60261,0.22858 -0.0485,-0.46408 0.09,-0.37403 -0.56105,-0.15931 -0.39481,0.56797 -2.23033,0.36019 -0.43637,-0.23551 -0.15931,-1.23984 -0.82425,-1.13595 0.20086,-1.91864 0.29092,-0.1039 -0.54027,-1.01127 0.75499,-0.54027 0.31862,-0.78268 0.84503,0.48485 1.59309,2.59744 1.20522,-0.27706 -0.35326,-0.27706 -0.78269,0.24935 -0.92815,-2.00869 -0.56105,-0.66493 -0.63724,-0.12469 1.39223,-2.00175 1.43379,1.90479 0.0139,1.12208 0.90044,0.80348 0.0347,-0.32554 -0.65109,-0.32555 -0.0761,-1.17751 2.09872,0.21472 -0.51949,-0.47792 -1.65543,-0.0485 -0.8104,-0.94201 -0.44329,-1.21905 0.007,-0.48486 1.18443,-0.86581 0.16624,0.56797 4.41911,1.26755 -0.0762,-0.31862 -1.69699,-0.5472 -1.66236,-0.8104 -0.76884,0.11775 -0.3671,-0.95585 1.08053,-1.08053 0.33247,-0.28399 0.63724,-0.85196 0.29783,-0.54027 0.59568,-0.29784 0.66495,-1.36452 0.82425,-0.20086 0.69957,-0.72729 0.40174,0.0416 0.15238,1.11516 0.81733,1.34375 -0.24243,1.27447 0.69265,0.24243 0.24936,0.38789 -0.56797,1.413 0.81733,-0.92122 0.80347,0.40174 -1.57232,-1.83552 0.19395,-0.37404 0.3671,0.12467 -1.2814,-3.09614 -0.0347,-0.90737 0.66495,-0.58875 0.47793,-0.30476 1.33681,-1.01127 1.13595,0.12467 1.32297,0.9143 -1.33682,1.75933 0.11775,0.64417 1.00434,0.66494 -0.82425,-1.06669 1.30218,-1.94634 -1.45457,-1.86323 0.97664,-0.87274 1.65543,0.38789 -0.85888,-0.85196 0.13853,-1.23291 1.32296,-0.99742 1.32296,0.99048 -0.81733,-1.63465 0.7827,-0.2078 1.2537,-1.19135 0.8104,-0.0346 0.33939,-0.90044 0.87966,-0.32555 0.61647,1.18443 0.54027,0.0831 0.097,-3.53252 -0.37403,-0.59567 0.74114,-0.38789 0.79655,-1.91171 1.55846,-1.69007 0.72036,-0.37403 0.46407,0.22165 0.71343,-0.8104 0.45715,0.29091 0.95585,3.33857 0.097,1.89786 0.54719,0.25628 -0.53334,-3.95502 -1.7247,-3.20004 2.65285,0.10388 0.67879,-1.47533 z"
     title="Southland"
     id="NZ-STL"
     style="fill:#999999;fill-opacity:0.58823529;stroke-width:0.69264984"
     inkscape:connector-curvature="0" />
  <path
     d="m 193.58141,265.87427 1.44071,0.18008 -2.20955,-1.22599 -0.27013,0.4433 z m 12.18371,-8.17327 -1.26755,1.54461 -0.88658,0.33247 -0.20087,1.07361 -0.61647,0.74113 -1.39222,0.69265 -0.78962,-0.67186 -2.14029,1.66235 -0.0139,0.76192 v 0 l 0.53333,0.90044 -0.55412,0.77576 -0.471,-0.31861 -0.28398,0.46408 0.38788,1.413 -2.0918,1.20522 -0.74114,-0.67188 v 0 l -1.02513,-0.471 -0.27705,-0.95586 -1.83552,-0.12468 -0.26321,-0.33247 -0.15931,-0.48485 0.74114,-0.0346 0.22165,-0.3671 -0.63725,-0.81041 0.0208,-0.65108 -2.17492,-2.28575 0.52642,-0.31169 0.28398,-1.39223 -0.90045,-1.26062 0.59569,-0.60953 0.0139,-0.3394 -0.0624,-0.68572 -0.66495,-0.0693 0.29092,-0.84503 0.75499,-0.0762 0.18701,-0.5749 0.72036,-0.42944 -0.0624,-0.52642 -0.22857,0.34634 -0.42252,-0.31863 0.52642,-0.35325 0.0416,-1.12902 -0.45715,-0.6026 0.50564,-0.36018 -0.20087,-0.78269 -0.38788,-0.17317 -1.03206,0.72728 -0.09,-0.3671 0.58182,-0.2355 -0.67187,-2.59052 -1.23292,0.24937 -0.14545,1.21213 -0.72036,-0.86581 -0.19394,0.6788 -1.53769,0.88658 -3.31779,-2.50739 -1.20521,-2.00868 -0.0693,-1.32989 -0.90737,-0.74113 0.64417,-0.29785 0.37403,-1.89092 -0.33247,-0.33248 2.06409,-2.50739 3.63641,0.18008 3.4494,1.1221 -0.53333,-0.471 -1.8286,-0.6788 -3.53944,-0.56105 -0.8866,0.24243 -2.11258,-0.471 -1.41993,0.48485 -2.30652,2.11259 -0.0762,0.46407 0.66494,-0.0347 0.0901,-0.55412 1.02512,0.0485 0.28398,-0.51948 0.1801,1.08053 -1.30912,0.13852 -0.38095,0.27707 0.31862,0.56105 -0.6026,-0.2355 -1.2537,0.8658 -0.0762,-0.34632 0.97664,-0.90737 -0.37403,-0.38096 -2.3758,1.66236 -1.9879,2.40349 -2.95761,2.32038 -1.13595,0.40174 v 0 l 0.76192,1.24677 -0.33247,2.27882 0.80347,-0.49871 0.12468,0.54026 0.66494,0.3394 -0.3394,0.52642 0.71343,1.10824 0.3671,-0.13853 0.30477,0.47793 1.29525,-0.097 0.30477,0.47792 -0.942,1.34375 -0.65109,0.0485 -0.49871,0.97664 v 0 l 0.69265,0.72728 v 0 l -0.42252,0.75499 0.2078,0.31861 0.65109,-0.0485 0.84503,-1.50305 0.77577,0.49871 0.8104,-0.50563 1.39915,0.0624 -0.21472,1.07361 0.87967,0.65802 0.15238,0.93507 0.75499,0.11083 0.2355,0.7065 1.59309,1.3853 0.47793,1.40608 1.20522,-0.24936 0.4987,0.40867 -0.93507,1.33681 -1.57232,0.38789 v 0 l -0.9143,0.3394 v 0 l 0.84503,1.26754 -0.38788,1.12903 0.21472,0.31861 -0.4433,0.36018 0.27013,1.08053 -2.06409,1.3576 -1.34374,-0.29092 -0.0277,-0.38095 -1.1775,0.63724 0.42252,0.6303 -0.36018,1.50998 -0.73421,0.27014 0.0277,0.38095 -0.65801,0.0485 -0.78962,0.87966 0.19394,1.30219 -0.55412,0.20086 0.34633,0.85889 -0.26322,0.29091 v 0 l -0.0485,0.60954 v 0 l -0.92122,0.3394 -0.0485,0.60953 -0.68572,-0.3394 -0.81732,0.4987 0.53334,0.78962 -0.17317,1.44765 -0.90043,-0.65802 -0.15239,0.45022 -1.42686,-0.0693 -1.15672,1.01819 0.31861,0.47793 -0.86581,1.11516 0.24243,0.70651 0.3671,-0.13854 -0.0554,3.01304 v 0 l -0.55412,0.20779 v 0 l -0.0485,0.61646 -0.65801,0.0485 0.35325,0.86582 -0.86582,1.12209 0.61646,0.5749 0.30476,1.4892 1.17059,0.3671 -0.5749,1.21907 0.99741,1.83552 1.80089,-0.0762 0.56797,1.19136 0.66495,-0.0485 0.0624,0.7827 2.27882,-0.0554 0.471,2.43813 -0.51948,0.6026 0.75498,1.1221 -0.0485,0.62338 0.3671,-0.13853 1.60002,1.00435 0.3671,-0.13853 -0.21471,-0.31862 0.33939,-0.53335 0.74114,-0.28398 v 0 l 1.21214,-0.26321 1.01126,-1.5931 1.28834,-0.49178 0.3394,-0.5264 -0.20087,-1.3299 0.88659,-0.73421 -0.27706,-1.09438 1.28832,-0.48485 0.13854,0.54718 0.84503,-0.11775 v 0 l 0.3671,-0.13853 -0.24243,-0.7065 0.35325,-1.53075 0.65802,-0.0485 0.70651,-0.66495 -0.24243,-0.7065 0.8104,-0.50563 0.20087,-1.07361 0.9143,-0.34633 0.0485,-0.61645 0.36711,-0.13853 0.15238,-0.45715 -0.71343,-0.72729 0.22858,-0.6788 0.54718,-0.20778 -0.0624,-0.76885 1.99483,-2.14029 -0.56105,-1.1775 0.25629,-0.29784 0.49871,0.40866 1.42686,-0.93507 1.5169,-2.16107 -0.0139,-1.37837 1.82167,-0.69958 0.0485,-0.60954 0.47101,0.0208 0.48485,-0.97663 v 0 l -0.0277,-0.38788 v 0 l 0.20087,-1.06669 0.39481,0.24243 1.08746,-0.42251 0.6788,0.33247 1.37145,-0.3394 -0.34633,-0.85889 -1.10131,-0.95585 0.66494,-1.05283 0.54027,-0.21472 -0.27014,-1.08054 1.44764,-0.5749 0.55413,-1.21213 1.58617,-1.03898 -0.097,-1.15673 1.44763,-1.59309 0.29785,-0.92123 0.82425,-0.13852 0.22165,-0.69265 1.36452,-0.36018 0.3394,-1.53075 -0.24243,-0.69959 0.64417,-2.44505 z"
     title="Tasman District"
     id="NZ-TAS"
     style="fill:#999999;fill-opacity:0.58823529;stroke-width:0.69264984"
     inkscape:connector-curvature="0" />
  <path
     d="m 233.2841,175.45575 0.097,0.0347 v 0 l 0.24936,0.58875 0.63031,-0.0554 0.29784,0.45715 1.99483,-0.007 0.75499,0.46407 1.24677,-0.47793 0.69265,1.05283 0.93507,0.39481 v 0 l -1.24676,0.47792 -0.21472,1.02513 -0.63032,0.0554 0.49872,0.75499 -0.25629,0.29091 0.24242,1.03897 0.69959,1.05283 0.87273,-0.71343 v 0 l 0.5749,0.53334 v 0 l -0.31169,0.87274 0.40174,0.60261 -0.33247,0.50563 0.38095,0.22857 -0.33247,0.50564 0.20087,0.29784 0.81732,-0.12468 0.31862,0.81733 0.15932,-0.43638 0.63723,-0.0554 0.64417,1.64158 v 0 l -0.36018,0.13853 v 0 l -0.0555,0.58876 2.29267,0.0554 -0.1593,0.43637 0.87965,0.98357 -1.47533,-0.18702 -0.51257,0.58182 0.20087,0.29785 -0.45715,-0.0139 0.20088,0.29784 -0.63725,0.0555 0.40174,0.60261 -1.17058,0.27013 0.38096,0.22857 -0.53334,0.2078 0.38095,0.22857 -1.10823,1.37838 0.20086,0.30476 -0.56105,-0.15931 -0.33246,0.51256 -0.65802,-0.31169 -0.0347,0.96279 -1.26756,1.82166 0.22165,0.67187 0.74114,0.09 1.06668,0.91429 v 0 l -0.23551,0.66495 v 0 l 0.0208,0.37403 -0.45715,-0.0139 0.7065,1.05975 -0.1593,0.4433 1.29525,1.59309 0.63724,-0.0624 0.27013,1.41993 0.7827,0.83811 -0.79655,1.84244 0.37404,1.57232 -0.36019,0.14545 0.68573,0.68573 -1.78704,0.70651 0.2078,0.30476 -0.33247,0.51256 0.40866,0.60953 -0.43637,0.36018 0.20779,0.30477 -1.19135,0.27013 0.0277,0.37404 -0.99741,0.56103 -0.24243,0.65802 -1.03897,0.16624 -1.16365,1.69006 0.45714,0.30477 v 0 l -1.61387,0.22165 -2.89528,-1.46149 -1.47534,-0.31861 -1.22599,-1.32297 -1.30219,-0.52642 -1.29525,-1.12902 -2.15414,-2.92297 -3.2693,-1.90479 -3.78187,-0.56798 -0.97664,-0.6303 -1.44764,-0.18702 -2.0641,-1.21907 -1.21213,-1.87015 -2.02254,-1.89093 -1.08746,-4.56456 1.08053,-3.06152 3.26931,-2.52124 0.94893,-0.12468 1.50305,-1.03897 0.6788,-1.05976 1.63465,-0.17316 3.0061,-2.17492 3.01303,-0.17317 1.41993,0.35325 2.01561,-0.97663 1.60695,-2.36194 1.66236,-1.41993 z"
     title="Taranaki"
     id="NZ-TKI"
     style="fill:#999999;fill-opacity:0.58823529;stroke-width:0.69264984"
     inkscape:connector-curvature="0" />
  <path
     d="m 253.68265,99.465129 0.5749,0.304766 0.64415,-0.242427 0.24936,1.433782 0.54027,-0.33247 0.38095,0.8104 0.45715,-0.71343 0.42944,0.12468 1.21215,1.08746 -0.38789,0.50563 0.20779,0.97664 -0.38095,0.27706 0.63723,0.38789 0.51949,-0.24936 0.63724,0.75499 -0.19394,0.94893 0.30477,0.5472 -0.81734,-0.0277 0.11083,0.80347 0.71343,-0.33247 0.58876,0.18702 0.0416,0.8381 0.54027,0.32555 -0.49178,1.23984 1.46148,-0.40174 -0.5264,-0.55412 1.6762,0.0347 2.05717,-1.19829 0.42945,0.89352 0.64417,-0.0208 0.11082,0.76191 -0.94201,0.0485 -0.94893,0.5749 -0.18008,1.07361 -1.29526,0.56104 0.18009,0.96972 -0.80347,0.18701 -0.0762,0.90737 0.49178,0.45715 0.83118,-1.70392 0.42251,0.15239 0.74807,-0.56798 1.55846,1.07361 -0.22164,0.89352 1.18442,1.78703 -0.50563,1.06669 0.81733,1.25369 -0.42252,-0.16624 -0.69265,1.41994 0.1316,0.43636 0.75499,-1.37144 0.58876,0.69958 0.17315,1.14287 -0.0624,1.66236 -0.30477,1.10824 0.38097,1.67621 -0.28399,0.26321 -0.56105,-1.22599 -0.0831,0.84502 0.69265,0.85889 0.42945,2.0364 1.19828,2.27882 -0.1316,0.99741 v 0 l -0.6788,0.24243 0.37403,0.2355 -0.22857,0.63723 -0.43637,-0.0277 0.33247,0.80347 -0.50563,0.5472 -0.37404,-0.2355 -0.59567,0.76883 0.29091,0.45023 0.35325,-0.12468 0.40866,0.95586 -1.08053,0.0277 -0.6788,-1.0459 -0.67187,0.99048 0.69958,1.40609 -0.68573,0.62338 0.90045,1.70392 -0.11775,1.1498 1.75933,2.65284 0.65109,1.9602 -0.52642,1.85631 0.92816,0.38788 -0.35326,0.1316 0.49179,0.73422 -0.15239,0.42943 0.65109,0.30477 -0.15238,0.42945 0.47101,0.37402 -0.96278,0.5472 0.33939,1.16365 0.55412,0.15931 0.0416,0.72728 1.18443,0.1039 0.94893,0.74806 0.14546,0.87274 1.32296,0.97663 1.80781,0.0485 1.32297,0.96971 -0.0555,0.5749 0.35325,-0.13853 0.39481,0.58875 -0.33247,0.49872 0.78962,2.47968 -0.35325,0.13853 0.76884,2.11951 0.35325,-0.13853 0.29784,0.4433 0.0485,0.72728 1.03205,0.53334 0.80347,-0.12468 0.97664,1.10824 1.55847,0.32554 1.08053,1.2537 -0.9143,3.89962 0.22858,0.65802 -2.41735,-0.92123 -0.86582,2.01562 -1.58617,-0.68573 0.63725,-1.36452 -0.49871,-0.73421 -0.8104,0.13161 0.0208,0.3671 -1.31604,0.69958 -1.36452,-0.0277 -0.0485,-0.72729 -0.55413,-0.1593 -0.45022,-1.31604 -1.60002,1.92557 -0.7342,-0.09 0.14545,0.87274 -0.42945,0.35325 0.22165,0.65802 1.44072,-0.18702 0.32554,0.8104 0.53334,-0.20778 2.24419,0.99741 -0.35325,0.13853 -0.0277,0.942 -0.89352,1.65543 2.27189,2.66671 -1.11516,0.99741 -2.78445,-0.78269 -0.1801,1.3853 -0.35325,0.13853 v 0 l 0.32555,0.8104 v 0 l 0.68572,0.67187 -0.45715,-0.007 0.52641,1.10823 v 0 l 1.39223,1.70392 v 0 l 1.01819,0.16624 0.22858,-0.65109 0.73421,0.09 0.12468,1.82859 0.60953,0.8866 -0.58183,0.79654 0.50564,0.74114 -0.0277,0.94892 -0.63724,0.0624 -0.68572,0.6511 v 0 l 0.20087,0.29783 -1.50306,0.7827 -0.0485,0.58875 v 0 l -0.942,-0.38096 -1.68314,0.85196 -3.03381,-0.12468 -0.20779,1.02513 -2.14029,0.84503 0.38095,0.22858 -0.15238,0.43636 -1.0459,0.78962 0.40866,0.59568 -0.81732,0.13161 -0.84503,1.08746 -1.50305,-0.54027 -0.15239,0.44329 -1.12209,-0.31862 -0.99742,0.20087 -2.97839,-0.72035 2.03639,-4.01737 0.51949,-1.90479 -0.96278,-0.75498 0.31168,-0.87274 -0.38095,-0.22858 0.89352,-0.34632 0.0277,-0.95586 1.02512,-1.1498 -1.47534,-0.18009 -1.80782,0.32555 -0.24935,-1.03205 0.82425,-1.44764 -1.10823,-1.64158 1.00433,-1.51691 -0.69957,-1.03897 -0.35325,0.13854 -0.62338,-1.26063 1.413,-2.23033 0.31169,-0.86582 -0.22165,-0.66494 1.37838,-1.28141 0.27013,-1.60002 -0.69265,0.63725 -1.87708,0.53334 -1.0736,-1.26755 -1.44764,0.18008 -0.755,-0.45715 -0.99048,0.19395 -0.15931,0.43637 -1.06668,0.40866 -0.3394,-1.1775 -0.58875,0.78962 0.14545,0.87967 -0.65802,-0.3117 -0.49178,0.93508 -0.63724,0.0554 -0.1593,0.43637 -0.89352,0.3394 -0.75499,-0.46408 -0.99049,0.19395 -0.65802,-0.3117 -0.51256,0.5749 -0.65801,-0.31169 -0.76885,0.85889 -1.06668,0.40867 -1.36452,-0.0416 0.3394,1.18444 -0.27705,-0.0831 -0.57491,1.15673 0.22165,0.67187 -1.08746,0.0416 -1.0459,0.77577 v 0 l -0.92815,-0.39481 -0.69265,-1.05283 -1.24677,0.47793 -0.75499,-0.46408 -1.99483,0.0139 -0.29784,-0.45715 -0.63031,0.0554 -0.24936,-0.58875 v 0 l 0.37404,-6.94035 0.40173,-1.66928 -0.29783,-2.41043 0.56103,-0.0554 0.12469,-0.71342 1.48226,-1.96021 -0.0416,-3.57407 -0.96971,-3.02688 0.20086,-0.22857 0.19395,0.38095 1.14287,0.20087 1.10132,-1.26062 -0.36711,0.8104 0.097,0.24935 0.36017,-0.28398 v 0.78269 l 0.48487,0.0693 0.24242,-0.54027 0.30477,0.95586 0.82425,-0.40867 0.18009,-0.19394 -0.94201,-0.0277 0.25628,-0.69265 2.36194,-1.12209 -0.6788,-0.3671 -0.0762,-0.56798 -0.83811,0.11775 -0.25627,0.35325 -0.20088,-0.68572 -0.76191,1.27448 -0.79655,0.10389 0.42252,-2.13335 0.74806,-0.45715 -0.0624,0.40866 0.69265,0.18009 -0.0554,-0.471 1.1498,-1.70392 -0.5472,-0.40174 -1.15672,0.22857 -0.22165,0.93508 0.39481,0.3394 -1.0182,0.49871 -1.03205,-4.89011 0.54027,-1.14287 1.30219,-0.27706 0.51948,-0.63031 0.92123,-0.3117 0.97664,0.51257 0.35325,-0.0693 -0.2078,-0.37403 0.42252,-0.007 0.34632,0.40173 0.55413,-0.67186 -0.47101,-0.28399 -1.03898,0.22857 0.39482,-0.53334 1.03897,0.0693 -0.42944,-0.80348 -1.16365,0.33248 -0.14546,1.09438 -0.97664,-0.56104 0.15238,0.49178 -0.85888,0.36017 -1.19829,-5.5689 -0.66493,-1.1498 -0.0208,-1.30911 -1.81474,-4.27365 0.0277,-2.15414 0.31169,0.54027 0.72036,-0.14546 1.16365,-1.78704 0.63724,-0.34632 v 0 l 1.11516,-0.66494 0.0624,-0.94201 1.80782,0.4433 0.0624,-0.94201 0.43637,-0.34632 -0.37403,-0.59568 1.6208,0.13853 0.51256,-0.92122 -0.67187,-1.40608 -0.65109,-0.6788 -0.25628,0.27706 -0.20087,-0.65802 0.3394,-0.49178 0.55412,0.53334 0.89352,0.0416 0.56797,-1.8563 1.19828,-1.53769 0.38096,0.59569 1.89094,0.21471 0.0485,-1.29525 0.52642,-0.19395 0.92122,0.755 1.79397,-0.51256 0.31168,-0.73422 v 0 l 0.52642,1.7247 -0.09,2.79831 0.95586,2.10565 1.82859,0.45715 3.20005,-1.59309 0.43637,0.17316 -0.62338,-2.00868 0.22164,-1.66929 -0.67187,-2.92991 -1.91171,-2.47276 -0.60953,-1.60695 0.77577,-0.29091 -0.1801,-0.53334 -0.12467,-0.32555 0.47793,-0.42944 1.48919,-0.0554 0.2355,-0.56798 -0.67187,-1.1775 -0.20086,-0.51256 -1.14287,-0.7065 0.46407,-1.78704 -0.27014,-1.21214 -0.0346,-0.51949 -0.81733,-1.01127 -1.63465,-0.89351 -0.49179,-1.06669 0.0139,-1.413 0.39482,0.11082 0.0762,-0.41559 z"
     title="Waikato"
     id="NZ-WKO"
     style="fill:#999999;fill-opacity:0.58823529;stroke-width:0.69264984"
     inkscape:connector-curvature="0" />
  <path
     d="m 242.26778,249.51388 0.2355,0.24243 -0.53335,0.89351 -1.27447,1.25369 -0.48485,-0.09 1.34373,-2.2996 z m 5.07712,-4.14205 0.90737,0.097 0.0347,0.37403 0.96972,0.39481 0.0346,0.37403 -0.64417,0.0624 0.14547,0.52641 0.85888,0.24243 0.42944,-0.3671 0.78962,0.46407 1.15673,-0.65108 1.0459,0.16623 0.11082,-0.82425 0.54027,-0.21473 0.60953,0.54027 1.22599,0.097 0.87275,-1.71778 4.04507,2.0918 0.90737,-0.3671 0.22165,-0.67187 0.58182,0.15931 -0.0346,-0.38096 v 0 l 0.22165,-0.6788 v 0 l 1.30218,-0.1316 0.50563,0.38096 0.25628,-0.29785 0.50563,0.38097 -0.25627,0.29783 0.3948,0.22858 -0.69265,1.64851 1.15673,0.31862 0.50564,-0.59569 0.3948,0.22858 0.25628,-0.29784 0.61647,0.53334 1.05282,-0.81733 0.61646,0.53334 0.29091,-0.90044 0.83118,-0.13853 -0.14545,-0.52642 0.76191,0.0832 0.40174,-0.74807 0.79654,0.46408 1.1221,-0.0624 -0.21472,-0.30477 0.29091,0.0762 0.0762,-1.20522 1.15673,0.31862 0.54027,-0.21472 0.54026,0.76192 1.6208,0.33247 0.39481,1.21907 0.68572,0.31861 -0.31861,0.51949 0.17316,0.56798 v 0 l -0.2355,1.5169 -0.99742,1.97405 0.15932,0.85196 -2.2719,2.00868 -0.47792,1.61387 -0.51257,0.38789 -0.15931,1.46842 -0.80347,1.31603 -0.0346,1.02512 -1.96021,1.98791 -0.90045,2.38271 -2.2511,1.1221 -0.48485,1.45456 -1.39224,1.5931 -3.65026,1.89785 -2.43813,2.63901 -2.10565,0.82425 -0.26321,0.65109 -1.78011,1.59309 -1.74547,-0.0139 -1.21214,1.32989 -0.8589,0.17316 -0.94892,-0.40866 -0.56105,0.17316 -0.45715,-2.42427 -0.63723,-0.50563 0.74113,-2.60437 -0.1316,-0.75499 -1.94635,-1.21906 0.007,-1.08054 -1.01127,0.51949 -1.76625,-0.33247 -1.43379,0.72036 -1.91171,1.65543 -0.45022,-0.75499 -0.92122,-0.29784 0.22857,-0.81733 -0.75499,-1.02512 1.73855,-3.6087 -0.67187,-0.96279 -0.86581,-0.20779 -1.84938,1.49613 -0.18701,0.71342 0.66494,-0.0346 -0.0831,1.0459 0.64416,-1.09439 0.31169,0.3671 -0.2355,0.71344 0.30477,0.63723 -0.50564,0.48485 -0.53334,-0.65108 -0.89352,0.80347 -0.62338,-0.1316 -0.77577,0.60953 -0.58182,-0.61646 -0.98357,-0.13853 -1.23292,-2.02946 0.84504,-1.73856 1.87015,-0.64416 0.71343,-1.69699 0.5749,-0.20087 1.18444,-1.97405 0.8104,-0.13853 0.40173,-0.66495 0.39481,0.40866 -0.63031,0.63724 0.0624,0.47101 0.471,-0.54027 0.20087,-1.06668 -0.76884,-0.78962 0.21472,-0.52641 2.51432,-1.75241 0.79654,-1.57925 0.40174,-2.59743 2.05717,-2.02254 z"
     title="Wellington"
     id="NZ-WGN"
     style="fill:#999999;fill-opacity:0.58823529;stroke-width:0.69264984"
     inkscape:connector-curvature="0" />
  <path
     d="m 168.58368,247.83074 0.76191,1.24677 -0.33247,2.27882 0.80348,-0.49872 0.12467,0.54027 0.66495,0.3394 -0.3394,0.52642 0.71343,1.10823 0.3671,-0.13852 0.30477,0.47792 1.29525,-0.097 0.30477,0.47794 -0.942,1.34373 -0.6511,0.0485 -0.4987,0.97663 v 0 l 0.69265,0.72729 v 0 l -0.42252,0.75499 0.2078,0.31862 0.65109,-0.0485 0.84503,-1.50305 0.77577,0.49871 0.8104,-0.50564 1.39915,0.0624 -0.21472,1.0736 0.87966,0.65802 0.15238,0.93508 0.755,0.11082 0.2355,0.7065 1.59309,1.38531 0.47793,1.40608 1.20521,-0.24935 0.49871,0.40866 -0.93508,1.33681 -1.57232,0.38788 v 0 l -0.91429,0.3394 v 0 l 0.84503,1.26755 -0.38788,1.12902 0.21472,0.31862 -0.4433,0.36018 0.27013,1.08054 -2.06409,1.35759 -1.34374,-0.29092 -0.0277,-0.38095 -1.17751,0.63723 0.42252,0.63032 -0.36017,1.50997 -0.73422,0.27013 0.0277,0.38097 -0.65801,0.0485 -0.78962,0.87967 0.19394,1.30218 -0.55412,0.20087 0.34632,0.85888 -0.26321,0.29091 v 0 l -0.0485,0.60953 v 0 l -0.92123,0.3394 -0.0485,0.60954 -0.68572,-0.3394 -0.81733,0.49871 0.53335,0.78962 -0.17317,1.44764 -0.90044,-0.65802 -0.15239,0.45022 -1.42685,-0.0693 -1.15673,1.0182 0.31862,0.47793 -0.86581,1.11516 0.24243,0.70651 0.3671,-0.13853 -0.0554,3.01302 v 0 l -0.55412,0.2078 v 0 l -0.0485,0.61645 -0.65801,0.0485 0.35325,0.8658 -0.86581,1.1221 0.61646,0.5749 0.30476,1.48919 1.17059,0.36711 -0.5749,1.21906 0.99741,1.83552 1.80089,-0.0761 0.56797,1.19135 0.66495,-0.0485 0.0624,0.78268 2.27882,-0.0554 0.471,2.43813 -0.51949,0.60261 0.75499,1.12208 -0.0485,0.62339 0.36711,-0.13852 1.60002,1.00433 0.3671,-0.13853 -0.21471,-0.31862 0.33939,-0.53333 0.74114,-0.28399 v 0 l 0.21472,0.31862 -0.59568,0.83118 0.0624,0.78269 -0.47792,-0.0208 -0.0624,1.64158 -0.81733,0.51257 -0.40173,-0.24936 -1.47535,0.56798 -1.64851,2.05024 -1.39915,0.33939 -0.12468,0.85889 -1.33681,1.12902 -0.0139,1.02512 -1.55846,0.80348 -0.56797,1.23984 0.21472,0.32555 -0.36711,0.14545 0.21472,0.32555 -1.84937,0.71343 -0.40173,-0.24935 v 0 l -1.21907,0.27013 v 0 l 0.13853,0.56104 -1.48227,0.5749 -0.20087,1.10132 -0.89351,0.75498 0.09,1.19136 -0.85195,0.12468 -0.2355,0.7065 -0.81733,0.51948 -1.51691,0.1801 0.0416,1.82167 -0.74114,0.29091 -0.15238,0.47101 0.51257,0.41558 -0.97664,0.99742 -0.56105,0.21472 -0.72728,-0.74114 -1.37837,0.74114 -0.69957,-0.34632 -1.96714,0.56104 -0.61645,-0.5749 -0.71343,0.68573 -0.58875,-0.1801 -0.3394,0.54027 0.21471,0.32555 -0.90043,0.75498 -0.37404,0.14547 0.15932,-0.47101 -0.8866,-0.27013 -0.63724,0.45022 -0.96278,-0.0416 -0.15931,0.471 0.29784,0.09 -2.09873,1.41993 v 0 l 0.27706,1.1221 v 0 l -0.63723,0.45022 0.0624,0.79655 -0.84503,0.2355 -0.40174,-0.25628 -1.08746,0.83118 -0.21472,-0.32555 -0.56105,0.21472 0.13853,0.56105 -0.45022,0.38095 -0.69958,-0.34632 0.21472,0.32555 -0.56104,0.21472 0.13852,0.56105 -0.82425,0.51948 0.43637,0.65109 -0.93507,0.36018 -0.0485,0.63724 -0.87273,1.15672 -1.0459,0.19394 0.0485,-0.63031 -0.58875,-0.18009 -0.95586,1.39223 -0.56104,0.21472 -0.0139,1.03205 -1.23291,0.27013 -0.0485,0.63724 -0.56105,0.21472 -0.21472,-0.32555 -1.09438,0.83119 -1.45457,-0.0624 0.36018,0.89352 -1.23291,0.27013 -0.71344,0.68572 0.43637,0.65802 -1.16365,1.06668 -0.0416,0.63724 -0.85889,0.12468 -0.13853,-0.56105 -0.85889,0.12468 -0.32554,-0.49178 -0.33939,0.54027 -1.30219,0.4987 -0.30477,0.942 -0.85196,0.12468 -0.67879,1.08054 -1.29526,0.4987 -0.65802,-0.98355 -1.52382,1.2052 -1.14287,0.0277 -1.19137,1.69699 v 0 l -0.84503,0.11775 v 0 l -0.30477,0.942 -1.39915,0.33248 0.31862,1.53768 -0.30476,0.94893 -1.55153,0.8104 0.0277,1.44764 -0.7065,0.69265 -0.85196,0.11775 0.32554,0.49871 -0.45022,0.38096 0.0624,0.8104 -0.77577,-0.11775 -0.15239,0.47793 -1.11516,0.42251 0.0624,0.8104 -0.96278,-0.0485 -0.5749,1.2537 -1.83552,1.10824 -0.28399,1.35067 -0.48485,-0.0277 -0.49871,1.0182 -0.56104,0.2078 v 0 l -0.51257,-0.42945 -1.419933,0.31862 -1.07361,-0.22165 -0.31169,0.94894 0.43637,0.67186 -0.39481,1.18444 -1.34374,0.0831 -0.79655,0.92122 -1.15673,0.0139 -0.31861,0.94893 -1.93249,1.34374 -1.10824,-0.63724 -0.60261,-1.66236 -0.75499,0.27706 0.22165,0.3394 -0.38095,0.13853 -0.13162,0.88659 -0.56796,0.2078 -2.62514,-0.0901 -0.47101,-1.08745 -1.78011,0.85888 0.0277,0.40866 -1.73163,0.20779 0.13853,0.58184 -1.13594,0.41558 0.36017,0.92815 -0.8381,0.51949 0.24935,0.75498 -2.56973,0.72729 -0.0485,0.6511 -0.56797,0.20778 0.16624,0.99742 -0.72035,2.17492 0.22164,0.34633 -0.88659,1.1775 v 0 l -0.65109,0.45022 v 0 l -1.10825,0.83119 0.13854,0.58875 -1.19829,-0.40867 -0.32554,-0.51255 -0.75499,0.27705 -1.99483,2.01562 -0.59568,-0.20087 -1.5169,0.56104 -0.99742,1.01127 -2.30651,0.43637 -0.70651,-0.37403 -0.56798,0.21472 v 0 l -0.21472,-0.3394 0.56798,-1.69699 v 0 l 0.15931,-0.48486 v 0 l 0.27013,-0.31169 -0.62338,-0.60953 1.03205,-0.59568 -0.0277,-0.41559 0.6788,-0.0416 0.1593,-0.48486 -1.19135,-0.39481 0.15931,-0.48485 -0.92123,-0.70651 0.27013,-0.31169 -0.27013,-1.16365 -0.96971,-0.0485 -0.72728,-0.76884 -1.26062,-0.14546 -2.34117,1.10824 -1.53767,-0.45022 v 0 l -1.226,-0.68573 1.43379,-0.58182 1.32988,-1.55153 1.91865,-1.60696 0.76191,-0.21471 0.51256,-1.46842 1.45457,-1.14287 0.0554,-1.28834 1.03206,-0.9143 -0.0485,-0.63723 3.98966,-0.20087 0.48486,-0.43637 0.46408,0.1039 0.81732,-0.98356 1.26755,-0.38789 -0.21472,0.76885 0.75499,0.65801 1.60695,0.0139 2.24418,-0.76884 1.36452,-0.75498 2.10566,-2.32731 1.9602,-0.89352 2.79137,-2.38271 1.65544,-2.00869 3.10307,-2.11951 2.09873,-0.84503 0.78269,-1.13595 1.43379,-0.61645 1.03897,-0.0485 1.00434,0.17317 1.36452,-1.50997 0.29784,0.5749 0.63031,-0.0208 1.62773,-1.75933 1.066683,-0.18702 2.85372,-4.73079 1.32297,-0.95586 2.0918,-0.21472 1.63465,-1.14287 1.8563,-2.74982 0.86581,-0.32555 2.51432,-2.38271 2.31345,-3.7888 3.43554,0.0416 -0.0485,-0.75499 -0.67187,0.0139 1.26755,-1.71084 2.28574,-1.00435 0.81733,0.11083 1.28832,-0.471 4.16976,-2.82602 3.89269,-3.82342 2.08488,-3.63642 3.00609,-3.00609 2.18186,-3.40784 1.89785,-4.71695 0.22165,-1.41993 0.71343,-0.36711 1.66236,-3.73338 0.76885,-5.70051 1.01126,-2.81908 0.61646,-0.54027 0.63724,-3.66412 1.02512,-1.03205 0.25629,-1.0459 0.20778,-1.46149 -0.35325,-0.4987 -0.0416,-1.95328 0.31862,-0.27013 2.11258,0.20087 1.10824,-0.83118 2.35501,0.42944 1.1498,-0.63724 4.26672,-4.11434 2.92991,-5.83211 2.16106,-2.14029 1.13595,-7.84772 -0.20779,-2.14721 0.35325,-2.65285 -0.36711,-4.73081 0.82426,-0.8658 0.0624,-0.87967 z"
     title="West Coast"
     id="NZ-WTC"
     style="fill:#999999;fill-opacity:0.58823529;stroke-width:0.69264984"
     inkscape:connector-curvature="0" />
  <g
     id="g837"
     transform="matrix(0.55103416,0.17582698,-0.23932075,0.62196773,115.83495,88.29382)">
    <path
       inkscape:connector-curvature="0"
       id="path831"
       d="m 279.04587,322.19486 12.48436,10.92381 -16.67595,3.68403 z"
       style="fill:#ffffff;stroke:none;stroke-width:1px;stroke-linecap:butt;stroke-linejoin:miter;stroke-opacity:1" />
    <path
       sodipodi:nodetypes="cccc"
       inkscape:connector-curvature="0"
       id="path833"
       d="m 280.90603,327.7525 c 14.84135,-20.74523 46.97692,-22.90207 61.38055,-11.71154 -24.51027,-1.42343 -37.15944,-1.26965 -57.73993,14.48833 z"
       style="fill:#ffffff;stroke:none;stroke-width:1px;stroke-linecap:butt;stroke-linejoin:miter;stroke-opacity:1" />
  </g>
  <text
     xml:space="preserve"
     style="font-style:normal;font-weight:normal;font-size:40px;line-height:1.25;font-family:sans-serif;letter-spacing:0px;word-spacing:0px;opacity:0.98999999;fill:#000000;fill-opacity:1;stroke:none"
     x="-238.63036"
     y="426.69196"
     id="text841"
     transform="rotate(-50.991747)"><tspan
       sodipodi:role="line"
       x="-238.63036"
       y="426.69196"
       id="tspan843"
       style="font-style:normal;font-variant:normal;font-weight:100;font-stretch:normal;font-size:37.33333206px;font-family:'Noto Sans';-inkscape-font-specification:'Noto Sans Thin';font-variant-ligatures:normal;font-variant-caps:small-caps;font-variant-numeric:normal;font-feature-settings:normal;text-align:start;writing-mode:lr-tb;baseline-shift:baseline;text-anchor:start;fill:#ffffff">Christchurch</tspan><tspan
       sodipodi:role="line"
       x="-238.63036"
       y="476.69196"
       style="font-style:normal;font-variant:normal;font-weight:normal;font-stretch:normal;font-size:40px;font-family:'Noto Sans';-inkscape-font-specification:'Noto Sans';font-variant-ligatures:normal;font-variant-caps:small-caps;font-variant-numeric:normal;font-feature-settings:normal;text-align:start;writing-mode:lr-tb;baseline-shift:baseline;text-anchor:start;fill:#ffffff"
       id="tspan849" /></text>
</svg>
