<?xml version="1.0" encoding="UTF-8" standalone="no"?>
<svg
   xmlns:dc="http://purl.org/dc/elements/1.1/"
   xmlns:cc="http://creativecommons.org/ns#"
   xmlns:rdf="http://www.w3.org/1999/02/22-rdf-syntax-ns#"
   xmlns:svg="http://www.w3.org/2000/svg"
   xmlns="http://www.w3.org/2000/svg"
   xmlns:sodipodi="http://sodipodi.sourceforge.net/DTD/sodipodi-0.dtd"
   xmlns:inkscape="http://www.inkscape.org/namespaces/inkscape"
   width="65px"
   viewBox="0 0 65 65"
   version="1.1"
   height="65px"
   id="svg1148"
   sodipodi:docname="morepork.arch.light.svg"
   inkscape:version="0.92.4 5da689c313, 2019-01-14">
  <metadata
     id="metadata1152">
    <rdf:RDF>
      <cc:Work
         rdf:about="">
        <dc:format>image/svg+xml</dc:format>
        <dc:type
           rdf:resource="http://purl.org/dc/dcmitype/StillImage" />
        <dc:title></dc:title>
      </cc:Work>
    </rdf:RDF>
  </metadata>
  <sodipodi:namedview
     pagecolor="#ffffff"
     bordercolor="#666666"
     borderopacity="1"
     objecttolerance="10"
     gridtolerance="10"
     guidetolerance="10"
     inkscape:pageopacity="0"
     inkscape:pageshadow="2"
     inkscape:window-width="1920"
     inkscape:window-height="1051"
     id="namedview1150"
     showgrid="false"
     inkscape:pagecheckerboard="true"
     showborder="true"
     inkscape:showpageshadow="false"
     borderlayer="false"
     inkscape:zoom="10.269366"
     inkscape:cx="49.390183"
     inkscape:cy="27.267824"
     inkscape:window-x="3840"
     inkscape:window-y="0"
     inkscape:window-maximized="1"
     inkscape:current-layer="svg1148" />
  <defs
     id="defs1141">
    <linearGradient
       id="lg"
       y1="9.90843"
       x2="25.431995"
       x1="34.76569"
       y2="28.426884"
       gradientTransform="scale(0.9319351,1.0730361)"
       gradientUnits="userSpaceOnUse">
      <stop
         stop-color="#fff"
         stop-opacity="0"
         offset="0"
         id="stop1136" />
      <stop
         stop-color="#fff"
         stop-opacity=".27451"
         offset="1"
         id="stop1138" />
    </linearGradient>
  </defs>
  <path
     style="fill:#ffffff;stroke-width:0.64353967"
     inkscape:connector-curvature="0"
     d="m 21.967745,11.906759 c -1.833444,4.494675 -2.946768,7.438675 -4.987432,11.799944 1.251041,1.326335 2.789101,2.865682 5.284104,4.610318 C 19.582144,27.21335 17.753847,26.108393 16.386969,24.958387 13.774842,30.409168 9.6793552,38.1709 1.3744757,53.093298 7.899968,49.326017 12.959477,47.001552 17.674048,46.114754 17.471977,45.245332 17.364506,44.300616 17.372228,43.319218 l 0.0051,-0.205933 c 0.10361,-4.181721 2.279417,-7.397488 4.856794,-7.179328 2.576732,0.218159 4.583289,3.786587 4.479679,7.968951 -0.01995,0.787693 -0.111332,1.544495 -0.266425,2.247241 4.663732,0.912539 9.674975,3.226064 16.11359,6.943149 -1.269704,-2.337336 -2.406839,-4.443641 -3.489272,-6.450841 -1.704737,-1.321187 -3.482194,-3.040082 -7.109183,-4.901842 2.493072,0.648044 4.279539,1.397125 5.670871,2.232439 C 26.63019,23.485969 25.740818,20.761865 21.967745,11.906759 v -5.8e-5 z"
     id="path1143" />
  <path
     id="path4676"
     d="m 43.032255,11.906759 c -1.833445,4.494675 -2.946768,7.438675 -4.987432,11.799944 1.251041,1.326335 2.7891,2.865682 5.284104,4.610318 -2.682274,-1.103671 -4.51057,-2.208628 -5.877448,-3.358634 -2.612128,5.450781 -6.707614,13.212513 -15.012493,28.134911 6.525492,-3.767281 11.585001,-6.091746 16.299572,-6.978544 -0.202071,-0.869422 -0.309542,-1.814138 -0.30182,-2.795536 l 0.0051,-0.205933 c 0.103609,-4.181721 2.279417,-7.397488 4.856793,-7.179328 2.576733,0.218159 4.58329,3.786587 4.47968,7.968951 -0.01995,0.787693 -0.111332,1.544495 -0.266425,2.247241 4.663732,0.912539 9.674975,3.226064 16.113589,6.943149 -1.269703,-2.337336 -2.406838,-4.443641 -3.489272,-6.450841 -1.704736,-1.321187 -3.482193,-3.040082 -7.109182,-4.901842 2.493072,0.648044 4.279538,1.397125 5.670871,2.232439 C 47.6947,23.485969 46.805328,20.761865 43.032255,11.906759 v -5.8e-5 z"
     inkscape:connector-curvature="0"
     style="fill:#ffffff;stroke-width:0.64353967" />
</svg>
